<svg width="1920" height="1080" viewBox="0 0 1920 1080" fill="none" xmlns="http://www.w3.org/2000/svg">
<g clip-path="url(#clip0_588_1469)">
<rect width="1920" height="1080" fill="#EAFFE4"/>
<rect width="1920" height="1080" fill="#EAFFE4"/>
<g clip-path="url(#clip1_588_1469)">
<path opacity="0.27" d="M-33.5893 627.489C19.4548 650.555 62.249 696.16 81.9064 750.552C101.564 804.945 97.8142 867.371 71.7856 919.023C61.8696 938.687 40.5371 959.288 20.9008 949.326C7.32423 942.435 3.87522 923.356 9.89258 909.361C15.8984 895.374 28.7081 885.595 41.5557 877.425C89.882 846.657 151.897 829.508 204.749 851.59C242.614 867.409 269.887 900.479 299.467 928.924C329.047 957.369 366.715 983.434 407.521 979.042C449.938 974.47 481.384 939.012 518.765 918.453C582.43 883.444 664.863 894.308 725.607 934.168C786.347 974.048 827.287 1038.87 851.521 1107.37C875.755 1175.87 884.849 1248.63 893.79 1320.73" stroke="#2F3B10" stroke-width="3" stroke-miterlimit="10"/>
</g>
<g clip-path="url(#clip2_588_1469)">
<path opacity="0.27" d="M1919.91 474.169C1869.37 446.04 1831.23 396.479 1816.97 340.428C1802.71 284.378 1812.53 222.615 1843.47 173.749C1855.26 155.145 1878.5 136.722 1897.07 148.552C1909.91 156.734 1911.48 176.059 1904.13 189.401C1896.79 202.735 1883.08 211.218 1869.5 218.096C1818.4 244.004 1755.01 255.023 1704.57 227.892C1668.42 208.456 1644.51 172.883 1617.84 141.689C1591.18 110.494 1556.23 80.8805 1515.19 81.272C1472.53 81.6847 1437.78 113.908 1398.57 130.723C1331.79 159.356 1250.81 140.504 1194.24 94.9099C1137.68 49.2964 1103.26 -19.2071 1085.82 -89.7439C1068.38 -160.281 1066.43 -233.584 1064.56 -306.212" stroke="#2F3B10" stroke-width="3" stroke-miterlimit="10"/>
</g>
</g>
<defs>
<clipPath id="clip0_588_1469">
<rect width="1920" height="1080" fill="white"/>
</clipPath>
<clipPath id="clip1_588_1469">
<rect width="1029.98" height="534.29" fill="white" transform="translate(895.14 1321.39) rotate(-170.597)"/>
</clipPath>
<clipPath id="clip2_588_1469">
<rect width="1029.98" height="534.29" fill="white" transform="translate(1063.28 -307) rotate(15)"/>
</clipPath>
</defs>
</svg>
