<svg width="613" height="827" viewBox="0 0 613 827" fill="none" xmlns="http://www.w3.org/2000/svg">
<rect width="613" height="827" rx="71" fill="#6B994D"/>
<path d="M24.0001 72C24.0001 44.3858 46.3858 22 74.0001 22H122.667V100.047H24.0001V72Z" fill="#EAFFB8"/>
<path d="M587.667 759.047C587.667 786.661 565.281 809.047 537.667 809.047L489 809.047L489 731L587.667 731L587.667 759.047Z" fill="#EAFFB8"/>
<path d="M173.064 575L173.128 574.664L173.528 574.52C173.677 574.477 173.795 574.403 173.88 574.296C173.976 574.179 174.04 574.051 174.072 573.912L174.92 569.384C175.027 568.797 175.139 568.168 175.256 567.496C175.384 566.813 175.496 566.163 175.592 565.544C175.624 565.395 175.597 565.256 175.512 565.128C175.437 564.989 175.325 564.899 175.176 564.856L174.888 564.76L174.968 564.424H178.728L178.648 564.76L178.264 564.888C177.955 564.973 177.773 565.176 177.72 565.496L176.856 570.04C176.749 570.627 176.637 571.256 176.52 571.928C176.403 572.6 176.285 573.24 176.168 573.848C176.147 574.008 176.173 574.152 176.248 574.28C176.323 574.408 176.429 574.499 176.568 574.552L176.904 574.664L176.824 575H173.064ZM178.455 575.128L178.295 574.984L179.511 569.176C179.607 568.749 179.447 568.451 179.031 568.28L178.791 568.184L178.823 567.912L181.655 567.064L181.831 567.224L181.479 569.032C182.033 568.445 182.599 567.976 183.175 567.624C183.751 567.261 184.289 567.08 184.791 567.08C185.132 567.08 185.409 567.187 185.623 567.4C185.847 567.603 185.959 567.917 185.959 568.344C185.959 568.579 185.937 568.819 185.895 569.064C185.852 569.299 185.799 569.544 185.735 569.8L184.919 573.08C184.876 573.251 184.839 573.4 184.807 573.528C184.785 573.645 184.775 573.747 184.775 573.832C184.775 574.056 184.865 574.168 185.047 574.168C185.324 574.168 185.676 573.944 186.103 573.496L186.327 573.72C186.06 574.115 185.713 574.467 185.287 574.776C184.86 575.075 184.385 575.224 183.863 575.224C183.532 575.224 183.271 575.144 183.079 574.984C182.887 574.824 182.791 574.605 182.791 574.328C182.791 574.104 182.817 573.88 182.871 573.656C182.924 573.421 182.988 573.171 183.063 572.904L183.687 570.376C183.772 570.056 183.841 569.768 183.895 569.512C183.948 569.256 183.975 569.027 183.975 568.824C183.975 568.611 183.927 568.467 183.831 568.392C183.745 568.307 183.628 568.264 183.479 568.264C183.223 568.264 182.913 568.376 182.551 568.6C182.199 568.813 181.799 569.155 181.351 569.624L180.919 571.592C180.801 572.157 180.689 572.723 180.583 573.288C180.476 573.853 180.369 574.424 180.263 575L178.455 575.128ZM189.117 575.128L188.973 575.016C188.877 573.853 188.775 572.776 188.669 571.784C188.573 570.792 188.477 569.827 188.381 568.888C188.349 568.621 188.295 568.456 188.221 568.392C188.157 568.317 188.071 568.28 187.965 568.28C187.773 568.28 187.517 568.467 187.197 568.84L186.973 568.584C187.666 567.581 188.359 567.08 189.053 567.08C189.799 567.08 190.21 567.565 190.285 568.536C190.359 569.293 190.429 570.109 190.493 570.984C190.557 571.848 190.621 572.76 190.685 573.72C191.09 573.229 191.469 572.749 191.821 572.28C192.173 571.811 192.525 571.299 192.877 570.744C193.037 570.477 193.127 570.227 193.149 569.992C193.17 569.747 193.133 569.48 193.037 569.192L192.797 568.568C192.658 568.163 192.679 567.811 192.861 567.512C193.053 567.203 193.33 567.048 193.693 567.048C194.045 567.048 194.295 567.149 194.445 567.352C194.594 567.555 194.669 567.811 194.669 568.12C194.669 568.323 194.621 568.568 194.525 568.856C194.429 569.144 194.226 569.549 193.917 570.072C193.49 570.819 192.946 571.629 192.285 572.504C191.623 573.368 190.882 574.211 190.061 575.032L189.117 575.128ZM197.644 575.224C196.855 575.224 196.21 574.968 195.708 574.456C195.218 573.944 194.972 573.203 194.972 572.232C194.972 571.56 195.09 570.915 195.324 570.296C195.559 569.677 195.879 569.128 196.284 568.648C196.7 568.157 197.186 567.773 197.74 567.496C198.295 567.219 198.892 567.08 199.532 567.08C200.194 567.08 200.695 567.229 201.036 567.528C201.388 567.827 201.564 568.227 201.564 568.728C201.564 569.336 201.159 569.939 200.348 570.536C199.548 571.123 198.386 571.581 196.86 571.912C196.892 572.605 197.058 573.112 197.356 573.432C197.655 573.752 198.066 573.912 198.588 573.912C199.058 573.912 199.479 573.789 199.852 573.544C200.226 573.299 200.54 573.011 200.796 572.68L201.036 572.856C200.823 573.261 200.546 573.645 200.204 574.008C199.874 574.371 199.495 574.664 199.068 574.888C198.642 575.112 198.167 575.224 197.644 575.224ZM199.372 567.624C199.127 567.624 198.866 567.731 198.588 567.944C198.311 568.147 198.044 568.429 197.788 568.792C197.543 569.144 197.335 569.555 197.164 570.024C196.994 570.483 196.892 570.973 196.86 571.496C198.055 571.144 198.892 570.707 199.372 570.184C199.863 569.661 200.108 569.107 200.108 568.52C200.108 568.211 200.039 567.987 199.9 567.848C199.762 567.699 199.586 567.624 199.372 567.624ZM203.907 575.224C203.246 575.224 202.712 575.096 202.307 574.84C201.902 574.573 201.699 574.205 201.699 573.736C201.699 573.48 201.784 573.261 201.955 573.08C202.126 572.888 202.35 572.792 202.627 572.792C203.15 572.792 203.475 573.107 203.603 573.736L203.683 574.104C203.726 574.339 203.79 574.52 203.875 574.648C203.971 574.765 204.131 574.824 204.355 574.824C204.632 574.824 204.872 574.717 205.075 574.504C205.288 574.28 205.395 573.971 205.395 573.576C205.395 573.288 205.304 573.011 205.123 572.744C204.952 572.477 204.648 572.179 204.211 571.848C203.784 571.507 203.438 571.155 203.171 570.792C202.904 570.429 202.771 569.992 202.771 569.48C202.771 569.043 202.883 568.643 203.107 568.28C203.342 567.917 203.672 567.629 204.099 567.416C204.526 567.192 205.032 567.08 205.619 567.08C206.312 567.08 206.851 567.219 207.235 567.496C207.63 567.773 207.827 568.12 207.827 568.536C207.827 568.771 207.752 568.963 207.603 569.112C207.464 569.261 207.262 569.336 206.995 569.336C206.515 569.336 206.179 569.037 205.987 568.44L205.875 568.056C205.822 567.853 205.752 567.715 205.667 567.64C205.582 567.555 205.464 567.512 205.315 567.512C205.112 567.512 204.92 567.608 204.739 567.8C204.558 567.992 204.467 568.28 204.467 568.664C204.467 569.037 204.574 569.379 204.787 569.688C205.011 569.987 205.347 570.307 205.795 570.648C206.275 571 206.622 571.341 206.835 571.672C207.048 571.992 207.155 572.387 207.155 572.856C207.155 573.507 206.872 574.067 206.307 574.536C205.742 574.995 204.942 575.224 203.907 575.224ZM209.945 575.224C209.614 575.224 209.342 575.144 209.129 574.984C208.926 574.813 208.825 574.563 208.825 574.232C208.825 573.827 208.889 573.336 209.017 572.76L210.089 567.8H208.729L208.793 567.464L209.433 567.4C209.977 567.325 210.425 567.069 210.777 566.632L212.025 565.128H212.521L212.073 567.32H213.849L213.753 567.832L211.961 567.8L210.905 572.92C210.862 573.112 210.83 573.283 210.809 573.432C210.788 573.571 210.777 573.688 210.777 573.784C210.777 573.891 210.809 573.976 210.873 574.04C210.937 574.104 211.012 574.136 211.097 574.136C211.321 574.136 211.662 573.907 212.121 573.448L212.377 573.656C212.11 574.051 211.769 574.413 211.353 574.744C210.948 575.064 210.478 575.224 209.945 575.224ZM215.338 575.224C214.901 575.224 214.506 575.064 214.154 574.744C213.813 574.424 213.642 573.88 213.642 573.112C213.642 572.547 213.749 571.976 213.962 571.4C214.186 570.824 214.48 570.28 214.842 569.768C215.216 569.245 215.632 568.787 216.09 568.392C216.549 567.987 217.018 567.667 217.498 567.432C217.989 567.197 218.453 567.08 218.89 567.08C219.104 567.08 219.301 567.123 219.482 567.208C219.674 567.293 219.85 567.405 220.01 567.544L221.21 567.016L221.386 567.128L220.026 573.096C219.941 573.437 219.898 573.688 219.898 573.848C219.898 574.072 220.005 574.184 220.218 574.184C220.368 574.184 220.533 574.125 220.714 574.008C220.896 573.88 221.098 573.709 221.322 573.496L221.514 573.688C221.354 573.933 221.157 574.173 220.922 574.408C220.688 574.643 220.421 574.84 220.122 575C219.834 575.149 219.53 575.224 219.21 575.224C218.88 575.224 218.602 575.123 218.378 574.92C218.154 574.707 218.042 574.381 218.042 573.944C218.042 573.795 218.053 573.635 218.074 573.464C217.637 573.955 217.178 574.371 216.698 574.712C216.218 575.053 215.765 575.224 215.338 575.224ZM215.498 572.376C215.498 572.92 215.584 573.315 215.754 573.56C215.936 573.795 216.176 573.912 216.474 573.912C216.73 573.912 216.992 573.832 217.258 573.672C217.525 573.501 217.824 573.251 218.154 572.92C218.165 572.856 218.181 572.771 218.202 572.664L219.194 568.152C219.056 568.013 218.896 567.917 218.714 567.864C218.533 567.8 218.362 567.768 218.202 567.768C217.765 567.768 217.285 568.04 216.762 568.584C216.389 568.989 216.085 569.544 215.85 570.248C215.616 570.941 215.498 571.651 215.498 572.376ZM224.423 575.224C223.761 575.224 223.228 575.096 222.823 574.84C222.417 574.573 222.215 574.205 222.215 573.736C222.215 573.48 222.3 573.261 222.471 573.08C222.641 572.888 222.865 572.792 223.143 572.792C223.665 572.792 223.991 573.107 224.119 573.736L224.199 574.104C224.241 574.339 224.305 574.52 224.391 574.648C224.487 574.765 224.647 574.824 224.871 574.824C225.148 574.824 225.388 574.717 225.591 574.504C225.804 574.28 225.911 573.971 225.911 573.576C225.911 573.288 225.82 573.011 225.639 572.744C225.468 572.477 225.164 572.179 224.727 571.848C224.3 571.507 223.953 571.155 223.687 570.792C223.42 570.429 223.287 569.992 223.287 569.48C223.287 569.043 223.399 568.643 223.623 568.28C223.857 567.917 224.188 567.629 224.615 567.416C225.041 567.192 225.548 567.08 226.135 567.08C226.828 567.08 227.367 567.219 227.751 567.496C228.145 567.773 228.343 568.12 228.343 568.536C228.343 568.771 228.268 568.963 228.119 569.112C227.98 569.261 227.777 569.336 227.511 569.336C227.031 569.336 226.695 569.037 226.503 568.44L226.391 568.056C226.337 567.853 226.268 567.715 226.183 567.64C226.097 567.555 225.98 567.512 225.831 567.512C225.628 567.512 225.436 567.608 225.255 567.8C225.073 567.992 224.983 568.28 224.983 568.664C224.983 569.037 225.089 569.379 225.303 569.688C225.527 569.987 225.863 570.307 226.311 570.648C226.791 571 227.137 571.341 227.351 571.672C227.564 571.992 227.671 572.387 227.671 572.856C227.671 573.507 227.388 574.067 226.823 574.536C226.257 574.995 225.457 575.224 224.423 575.224ZM231.549 566.136C231.25 566.136 230.994 566.04 230.781 565.848C230.567 565.656 230.461 565.395 230.461 565.064C230.461 564.712 230.589 564.419 230.845 564.184C231.101 563.949 231.389 563.832 231.709 563.832C232.018 563.832 232.274 563.933 232.477 564.136C232.679 564.328 232.781 564.579 232.781 564.888C232.781 565.229 232.653 565.523 232.397 565.768C232.151 566.013 231.869 566.136 231.549 566.136ZM230.077 575.224C229.757 575.224 229.49 575.144 229.277 574.984C229.074 574.813 228.973 574.568 228.973 574.248C228.973 574.067 228.994 573.848 229.037 573.592C229.079 573.336 229.127 573.075 229.181 572.808L229.933 569.192C230.029 568.744 229.863 568.44 229.437 568.28L229.213 568.184L229.245 567.896L232.125 567.064L232.285 567.224L231.069 572.936C231.026 573.117 230.994 573.277 230.973 573.416C230.951 573.544 230.941 573.667 230.941 573.784C230.941 574.019 231.047 574.136 231.261 574.136C231.517 574.136 231.853 573.933 232.269 573.528L232.477 573.736C232.21 574.131 231.874 574.477 231.469 574.776C231.074 575.075 230.61 575.224 230.077 575.224ZM239.436 575.224C239.148 575.224 238.876 575.165 238.62 575.048C238.514 575.571 238.418 576.035 238.332 576.44C238.258 576.856 238.188 577.251 238.124 577.624C238.06 577.987 238.204 578.216 238.556 578.312L238.956 578.408L238.892 578.696H235.148L235.212 578.408L235.5 578.344C235.884 578.227 236.114 577.987 236.188 577.624L237.964 569.16C238.039 568.733 237.879 568.44 237.484 568.28L237.228 568.184L237.26 567.896L240.076 567.064L240.268 567.208L239.932 568.872C240.359 568.339 240.844 567.907 241.388 567.576C241.932 567.245 242.434 567.08 242.892 567.08C243.33 567.08 243.703 567.235 244.012 567.544C244.332 567.853 244.492 568.408 244.492 569.208C244.492 569.784 244.391 570.36 244.188 570.936C243.996 571.512 243.73 572.061 243.388 572.584C243.047 573.096 242.658 573.549 242.22 573.944C241.783 574.339 241.324 574.653 240.844 574.888C240.375 575.112 239.906 575.224 239.436 575.224ZM241.58 568.312C241.335 568.312 241.058 568.413 240.748 568.616C240.439 568.808 240.124 569.08 239.804 569.432L238.908 573.864C239.292 574.227 239.687 574.408 240.092 574.408C240.743 574.408 241.287 574.061 241.724 573.368C241.884 573.112 242.028 572.797 242.156 572.424C242.295 572.04 242.402 571.629 242.476 571.192C242.562 570.755 242.604 570.333 242.604 569.928C242.604 569.405 242.519 569.005 242.348 568.728C242.178 568.451 241.922 568.312 241.58 568.312ZM246.698 575.224C246.26 575.224 245.866 575.064 245.514 574.744C245.172 574.424 245.002 573.88 245.002 573.112C245.002 572.547 245.108 571.976 245.322 571.4C245.546 570.824 245.839 570.28 246.202 569.768C246.575 569.245 246.991 568.787 247.45 568.392C247.908 567.987 248.378 567.667 248.858 567.432C249.348 567.197 249.812 567.08 250.25 567.08C250.463 567.08 250.66 567.123 250.842 567.208C251.034 567.293 251.21 567.405 251.37 567.544L252.57 567.016L252.746 567.128L251.386 573.096C251.3 573.437 251.258 573.688 251.258 573.848C251.258 574.072 251.364 574.184 251.578 574.184C251.727 574.184 251.892 574.125 252.074 574.008C252.255 573.88 252.458 573.709 252.682 573.496L252.874 573.688C252.714 573.933 252.516 574.173 252.282 574.408C252.047 574.643 251.78 574.84 251.482 575C251.194 575.149 250.89 575.224 250.57 575.224C250.239 575.224 249.962 575.123 249.738 574.92C249.514 574.707 249.402 574.381 249.402 573.944C249.402 573.795 249.412 573.635 249.434 573.464C248.996 573.955 248.538 574.371 248.058 574.712C247.578 575.053 247.124 575.224 246.698 575.224ZM246.858 572.376C246.858 572.92 246.943 573.315 247.114 573.56C247.295 573.795 247.535 573.912 247.834 573.912C248.09 573.912 248.351 573.832 248.618 573.672C248.884 573.501 249.183 573.251 249.514 572.92C249.524 572.856 249.54 572.771 249.562 572.664L250.554 568.152C250.415 568.013 250.255 567.917 250.074 567.864C249.892 567.8 249.722 567.768 249.562 567.768C249.124 567.768 248.644 568.04 248.122 568.584C247.748 568.989 247.444 569.544 247.21 570.248C246.975 570.941 246.858 571.651 246.858 572.376ZM254.934 575.224C254.592 575.224 254.315 575.139 254.102 574.968C253.899 574.787 253.798 574.531 253.798 574.2C253.798 574.019 253.819 573.8 253.862 573.544C253.915 573.277 253.979 572.941 254.054 572.536L254.998 567.944C255.083 567.56 255.152 567.213 255.206 566.904C255.259 566.595 255.323 566.243 255.398 565.848C255.462 565.4 255.28 565.112 254.854 564.984L254.614 564.904L254.662 564.632L257.638 563.768L257.782 563.896L255.846 573.064C255.803 573.235 255.771 573.384 255.75 573.512C255.739 573.64 255.734 573.747 255.734 573.832C255.734 574.067 255.835 574.184 256.038 574.184C256.283 574.184 256.64 573.955 257.11 573.496L257.334 573.72C257.067 574.093 256.736 574.44 256.342 574.76C255.947 575.069 255.478 575.224 254.934 575.224ZM260.799 566.136C260.5 566.136 260.244 566.04 260.031 565.848C259.817 565.656 259.711 565.395 259.711 565.064C259.711 564.712 259.839 564.419 260.095 564.184C260.351 563.949 260.639 563.832 260.959 563.832C261.268 563.832 261.524 563.933 261.727 564.136C261.929 564.328 262.031 564.579 262.031 564.888C262.031 565.229 261.903 565.523 261.647 565.768C261.401 566.013 261.119 566.136 260.799 566.136ZM259.327 575.224C259.007 575.224 258.74 575.144 258.527 574.984C258.324 574.813 258.223 574.568 258.223 574.248C258.223 574.067 258.244 573.848 258.287 573.592C258.329 573.336 258.377 573.075 258.431 572.808L259.183 569.192C259.279 568.744 259.113 568.44 258.687 568.28L258.463 568.184L258.495 567.896L261.375 567.064L261.535 567.224L260.319 572.936C260.276 573.117 260.244 573.277 260.223 573.416C260.201 573.544 260.191 573.667 260.191 573.784C260.191 574.019 260.297 574.136 260.511 574.136C260.767 574.136 261.103 573.933 261.519 573.528L261.727 573.736C261.46 574.131 261.124 574.477 260.719 574.776C260.324 575.075 259.86 575.224 259.327 575.224ZM262.595 575.128L262.435 574.984L263.651 569.176C263.747 568.749 263.587 568.451 263.171 568.28L262.931 568.184L262.963 567.912L265.795 567.064L265.971 567.224L265.619 569.032C266.174 568.445 266.739 567.976 267.315 567.624C267.891 567.261 268.43 567.08 268.931 567.08C269.273 567.08 269.55 567.187 269.763 567.4C269.987 567.603 270.099 567.917 270.099 568.344C270.099 568.579 270.078 568.819 270.035 569.064C269.993 569.299 269.939 569.544 269.875 569.8L269.059 573.08C269.017 573.251 268.979 573.4 268.947 573.528C268.926 573.645 268.915 573.747 268.915 573.832C268.915 574.056 269.006 574.168 269.187 574.168C269.465 574.168 269.817 573.944 270.243 573.496L270.467 573.72C270.201 574.115 269.854 574.467 269.427 574.776C269.001 575.075 268.526 575.224 268.003 575.224C267.673 575.224 267.411 575.144 267.219 574.984C267.027 574.824 266.931 574.605 266.931 574.328C266.931 574.104 266.958 573.88 267.011 573.656C267.065 573.421 267.129 573.171 267.203 572.904L267.827 570.376C267.913 570.056 267.982 569.768 268.035 569.512C268.089 569.256 268.115 569.027 268.115 568.824C268.115 568.611 268.067 568.467 267.971 568.392C267.886 568.307 267.769 568.264 267.619 568.264C267.363 568.264 267.054 568.376 266.691 568.6C266.339 568.813 265.939 569.155 265.491 569.624L265.059 571.592C264.942 572.157 264.83 572.723 264.723 573.288C264.617 573.853 264.51 574.424 264.403 575L262.595 575.128ZM273.01 578.792C272.135 578.792 271.436 578.653 270.914 578.376C270.402 578.099 270.146 577.688 270.146 577.144C270.146 576.824 270.258 576.525 270.482 576.248C270.695 575.971 270.972 575.725 271.314 575.512C271.655 575.299 272.007 575.128 272.37 575C272.039 574.893 271.778 574.755 271.586 574.584C271.404 574.413 271.314 574.205 271.314 573.96C271.314 573.704 271.458 573.411 271.746 573.08C272.034 572.749 272.38 572.424 272.786 572.104C272.487 571.891 272.258 571.629 272.098 571.32C271.948 571.011 271.874 570.675 271.874 570.312C271.874 569.736 272.023 569.203 272.322 568.712C272.62 568.221 273.015 567.827 273.506 567.528C274.007 567.229 274.562 567.08 275.17 567.08C275.97 567.08 276.61 567.288 277.09 567.704C277.751 567.619 278.375 567.411 278.962 567.08L279.106 567.224L278.946 568.056H277.426C277.65 568.387 277.762 568.771 277.762 569.208C277.762 569.869 277.623 570.456 277.346 570.968C277.068 571.469 276.679 571.864 276.178 572.152C275.687 572.429 275.111 572.568 274.45 572.568C273.948 572.568 273.506 572.477 273.122 572.296L272.866 572.696C272.77 572.835 272.743 572.968 272.786 573.096C272.828 573.224 272.946 573.309 273.138 573.352L275.666 573.864C276.551 574.045 277.17 574.28 277.522 574.568C277.884 574.845 278.066 575.235 278.066 575.736C278.066 576.323 277.842 576.845 277.394 577.304C276.956 577.763 276.359 578.125 275.602 578.392C274.844 578.659 273.98 578.792 273.01 578.792ZM274.722 572.168C275.095 572.168 275.41 571.965 275.666 571.56C275.922 571.155 276.05 570.477 276.05 569.528C276.05 568.877 275.954 568.376 275.762 568.024C275.57 567.661 275.33 567.48 275.042 567.48C274.594 567.491 274.258 567.736 274.034 568.216C273.81 568.685 273.698 569.309 273.698 570.088C273.698 570.664 273.778 571.16 273.938 571.576C274.098 571.981 274.359 572.179 274.722 572.168ZM271.73 576.6C271.73 577.091 271.916 577.48 272.29 577.768C272.674 578.056 273.191 578.2 273.842 578.2C274.663 578.2 275.303 578.061 275.762 577.784C276.231 577.507 276.466 577.123 276.466 576.632C276.466 576.323 276.332 576.077 276.066 575.896C275.799 575.725 275.324 575.571 274.642 575.432L272.706 575.08C272.407 575.272 272.167 575.491 271.986 575.736C271.815 575.992 271.73 576.28 271.73 576.6ZM284.998 575.224C284.497 575.224 284.086 575.091 283.766 574.824C283.457 574.547 283.302 574.131 283.302 573.576C283.302 573.192 283.345 572.771 283.43 572.312C283.516 571.853 283.606 571.384 283.702 570.904L284.694 565.96C284.78 565.501 284.604 565.208 284.166 565.08L283.894 564.984L283.942 564.712L286.918 563.848L287.062 563.976L286.006 568.92C286.444 568.365 286.929 567.923 287.462 567.592C288.006 567.251 288.513 567.08 288.982 567.08C289.452 567.08 289.836 567.245 290.134 567.576C290.433 567.896 290.582 568.44 290.582 569.208C290.582 569.805 290.476 570.397 290.262 570.984C290.049 571.56 289.756 572.104 289.382 572.616C289.02 573.128 288.598 573.581 288.118 573.976C287.649 574.36 287.148 574.664 286.614 574.888C286.081 575.112 285.542 575.224 284.998 575.224ZM285.126 573.64C285.126 573.907 285.185 574.125 285.302 574.296C285.43 574.467 285.612 574.552 285.846 574.552C286.412 574.552 286.956 574.227 287.478 573.576C287.702 573.299 287.9 572.957 288.07 572.552C288.252 572.147 288.39 571.715 288.486 571.256C288.593 570.787 288.646 570.339 288.646 569.912C288.646 569.368 288.566 568.963 288.406 568.696C288.246 568.419 288.028 568.28 287.75 568.28C287.484 568.28 287.196 568.387 286.886 568.6C286.588 568.803 286.268 569.091 285.926 569.464L285.526 571.288C285.398 571.875 285.297 572.36 285.222 572.744C285.158 573.117 285.126 573.416 285.126 573.64ZM294.051 575.224C293.261 575.224 292.616 574.968 292.115 574.456C291.624 573.944 291.379 573.203 291.379 572.232C291.379 571.56 291.496 570.915 291.731 570.296C291.965 569.677 292.285 569.128 292.691 568.648C293.107 568.157 293.592 567.773 294.147 567.496C294.701 567.219 295.299 567.08 295.939 567.08C296.6 567.08 297.101 567.229 297.443 567.528C297.795 567.827 297.971 568.227 297.971 568.728C297.971 569.336 297.565 569.939 296.755 570.536C295.955 571.123 294.792 571.581 293.267 571.912C293.299 572.605 293.464 573.112 293.763 573.432C294.061 573.752 294.472 573.912 294.995 573.912C295.464 573.912 295.885 573.789 296.259 573.544C296.632 573.299 296.947 573.011 297.203 572.68L297.443 572.856C297.229 573.261 296.952 573.645 296.611 574.008C296.28 574.371 295.901 574.664 295.475 574.888C295.048 575.112 294.573 575.224 294.051 575.224ZM295.779 567.624C295.533 567.624 295.272 567.731 294.995 567.944C294.717 568.147 294.451 568.429 294.195 568.792C293.949 569.144 293.741 569.555 293.571 570.024C293.4 570.483 293.299 570.973 293.267 571.496C294.461 571.144 295.299 570.707 295.779 570.184C296.269 569.661 296.515 569.107 296.515 568.52C296.515 568.211 296.445 567.987 296.307 567.848C296.168 567.699 295.992 567.624 295.779 567.624ZM298.502 575.128L298.342 574.984L299.542 569.192C299.595 568.936 299.579 568.739 299.494 568.6C299.408 568.451 299.259 568.339 299.046 568.264L298.822 568.184L298.87 567.912L301.526 567.064L301.718 567.24L301.286 569.752C301.52 569.261 301.787 568.813 302.086 568.408C302.384 568.003 302.694 567.683 303.014 567.448C303.344 567.203 303.67 567.08 303.99 567.08C304.31 567.08 304.566 567.165 304.758 567.336C304.96 567.507 305.062 567.731 305.062 568.008C305.062 568.307 304.976 568.547 304.806 568.728C304.635 568.909 304.406 569 304.118 569C303.67 569 303.254 568.776 302.87 568.328C302.486 568.637 302.155 569.021 301.878 569.48C301.6 569.928 301.339 570.413 301.094 570.936L300.966 571.592C300.859 572.157 300.747 572.723 300.63 573.288C300.523 573.853 300.416 574.424 300.31 575L298.502 575.128ZM304.732 575.112L304.604 574.984L306.076 567.944C306.151 567.571 306.215 567.229 306.268 566.92C306.332 566.6 306.401 566.248 306.476 565.864C306.561 565.405 306.375 565.112 305.916 564.984L305.692 564.904L305.74 564.632L308.668 563.768L308.812 563.896L307.74 568.952C308.273 568.408 308.839 567.96 309.436 567.608C310.033 567.256 310.583 567.08 311.084 567.08C311.425 567.08 311.703 567.187 311.916 567.4C312.129 567.603 312.236 567.917 312.236 568.344C312.236 568.579 312.215 568.819 312.172 569.064C312.129 569.299 312.076 569.544 312.012 569.8L311.228 572.968C311.185 573.171 311.143 573.347 311.1 573.496C311.068 573.635 311.052 573.747 311.052 573.832C311.052 574.056 311.143 574.168 311.324 574.168C311.591 574.168 311.953 573.949 312.412 573.512L312.62 573.72C312.364 574.093 312.023 574.44 311.596 574.76C311.169 575.069 310.689 575.224 310.156 575.224C309.815 575.224 309.548 575.144 309.356 574.984C309.175 574.824 309.084 574.605 309.084 574.328C309.084 574.104 309.111 573.88 309.164 573.656C309.217 573.421 309.276 573.171 309.34 572.904L310.044 570.136C310.119 569.859 310.183 569.603 310.236 569.368C310.289 569.133 310.316 568.931 310.316 568.76C310.316 568.376 310.145 568.184 309.804 568.184C309.26 568.184 308.551 568.605 307.676 569.448L307.212 571.592C307.073 572.232 306.951 572.819 306.844 573.352C306.748 573.885 306.657 574.435 306.572 575L304.732 575.112ZM315.213 575.224C314.776 575.224 314.381 575.064 314.029 574.744C313.688 574.424 313.517 573.88 313.517 573.112C313.517 572.547 313.624 571.976 313.837 571.4C314.061 570.824 314.355 570.28 314.717 569.768C315.091 569.245 315.507 568.787 315.965 568.392C316.424 567.987 316.893 567.667 317.373 567.432C317.864 567.197 318.328 567.08 318.765 567.08C318.979 567.08 319.176 567.123 319.357 567.208C319.549 567.293 319.725 567.405 319.885 567.544L321.085 567.016L321.261 567.128L319.901 573.096C319.816 573.437 319.773 573.688 319.773 573.848C319.773 574.072 319.88 574.184 320.093 574.184C320.243 574.184 320.408 574.125 320.589 574.008C320.771 573.88 320.973 573.709 321.197 573.496L321.389 573.688C321.229 573.933 321.032 574.173 320.797 574.408C320.563 574.643 320.296 574.84 319.997 575C319.709 575.149 319.405 575.224 319.085 575.224C318.755 575.224 318.477 575.123 318.253 574.92C318.029 574.707 317.917 574.381 317.917 573.944C317.917 573.795 317.928 573.635 317.949 573.464C317.512 573.955 317.053 574.371 316.573 574.712C316.093 575.053 315.64 575.224 315.213 575.224ZM315.373 572.376C315.373 572.92 315.459 573.315 315.629 573.56C315.811 573.795 316.051 573.912 316.349 573.912C316.605 573.912 316.867 573.832 317.133 573.672C317.4 573.501 317.699 573.251 318.029 572.92C318.04 572.856 318.056 572.771 318.077 572.664L319.069 568.152C318.931 568.013 318.771 567.917 318.589 567.864C318.408 567.8 318.237 567.768 318.077 567.768C317.64 567.768 317.16 568.04 316.637 568.584C316.264 568.989 315.96 569.544 315.725 570.248C315.491 570.941 315.373 571.651 315.373 572.376ZM322.377 575.128L322.217 574.984L323.417 569.192C323.47 568.936 323.454 568.739 323.369 568.6C323.283 568.451 323.134 568.339 322.921 568.264L322.697 568.184L322.745 567.912L325.401 567.064L325.593 567.24L325.161 569.752C325.395 569.261 325.662 568.813 325.961 568.408C326.259 568.003 326.569 567.683 326.889 567.448C327.219 567.203 327.545 567.08 327.865 567.08C328.185 567.08 328.441 567.165 328.633 567.336C328.835 567.507 328.937 567.731 328.937 568.008C328.937 568.307 328.851 568.547 328.681 568.728C328.51 568.909 328.281 569 327.993 569C327.545 569 327.129 568.776 326.745 568.328C326.361 568.637 326.03 569.021 325.753 569.48C325.475 569.928 325.214 570.413 324.969 570.936L324.841 571.592C324.734 572.157 324.622 572.723 324.505 573.288C324.398 573.853 324.291 574.424 324.185 575L322.377 575.128ZM330.385 578.792C329.51 578.792 328.811 578.653 328.289 578.376C327.777 578.099 327.521 577.688 327.521 577.144C327.521 576.824 327.633 576.525 327.857 576.248C328.07 575.971 328.347 575.725 328.689 575.512C329.03 575.299 329.382 575.128 329.745 575C329.414 574.893 329.153 574.755 328.961 574.584C328.779 574.413 328.689 574.205 328.689 573.96C328.689 573.704 328.833 573.411 329.121 573.08C329.409 572.749 329.755 572.424 330.161 572.104C329.862 571.891 329.633 571.629 329.473 571.32C329.323 571.011 329.249 570.675 329.249 570.312C329.249 569.736 329.398 569.203 329.697 568.712C329.995 568.221 330.39 567.827 330.881 567.528C331.382 567.229 331.937 567.08 332.545 567.08C333.345 567.08 333.985 567.288 334.465 567.704C335.126 567.619 335.75 567.411 336.337 567.08L336.481 567.224L336.321 568.056H334.801C335.025 568.387 335.137 568.771 335.137 569.208C335.137 569.869 334.998 570.456 334.721 570.968C334.443 571.469 334.054 571.864 333.553 572.152C333.062 572.429 332.486 572.568 331.825 572.568C331.323 572.568 330.881 572.477 330.497 572.296L330.241 572.696C330.145 572.835 330.118 572.968 330.161 573.096C330.203 573.224 330.321 573.309 330.513 573.352L333.041 573.864C333.926 574.045 334.545 574.28 334.897 574.568C335.259 574.845 335.441 575.235 335.441 575.736C335.441 576.323 335.217 576.845 334.769 577.304C334.331 577.763 333.734 578.125 332.977 578.392C332.219 578.659 331.355 578.792 330.385 578.792ZM332.097 572.168C332.47 572.168 332.785 571.965 333.041 571.56C333.297 571.155 333.425 570.477 333.425 569.528C333.425 568.877 333.329 568.376 333.137 568.024C332.945 567.661 332.705 567.48 332.417 567.48C331.969 567.491 331.633 567.736 331.409 568.216C331.185 568.685 331.073 569.309 331.073 570.088C331.073 570.664 331.153 571.16 331.313 571.576C331.473 571.981 331.734 572.179 332.097 572.168ZM329.105 576.6C329.105 577.091 329.291 577.48 329.665 577.768C330.049 578.056 330.566 578.2 331.217 578.2C332.038 578.2 332.678 578.061 333.137 577.784C333.606 577.507 333.841 577.123 333.841 576.632C333.841 576.323 333.707 576.077 333.441 575.896C333.174 575.725 332.699 575.571 332.017 575.432L330.081 575.08C329.782 575.272 329.542 575.491 329.361 575.736C329.19 575.992 329.105 576.28 329.105 576.6ZM338.151 575.224C337.713 575.224 337.319 575.064 336.967 574.744C336.625 574.424 336.455 573.88 336.455 573.112C336.455 572.547 336.561 571.976 336.775 571.4C336.999 570.824 337.292 570.28 337.655 569.768C338.028 569.245 338.444 568.787 338.903 568.392C339.361 567.987 339.831 567.667 340.311 567.432C340.801 567.197 341.265 567.08 341.703 567.08C341.916 567.08 342.113 567.123 342.295 567.208C342.487 567.293 342.663 567.405 342.823 567.544L344.023 567.016L344.199 567.128L342.839 573.096C342.753 573.437 342.711 573.688 342.711 573.848C342.711 574.072 342.817 574.184 343.031 574.184C343.18 574.184 343.345 574.125 343.527 574.008C343.708 573.88 343.911 573.709 344.135 573.496L344.327 573.688C344.167 573.933 343.969 574.173 343.735 574.408C343.5 574.643 343.233 574.84 342.935 575C342.647 575.149 342.343 575.224 342.023 575.224C341.692 575.224 341.415 575.123 341.191 574.92C340.967 574.707 340.855 574.381 340.855 573.944C340.855 573.795 340.865 573.635 340.887 573.464C340.449 573.955 339.991 574.371 339.511 574.712C339.031 575.053 338.577 575.224 338.151 575.224ZM338.311 572.376C338.311 572.92 338.396 573.315 338.567 573.56C338.748 573.795 338.988 573.912 339.287 573.912C339.543 573.912 339.804 573.832 340.071 573.672C340.337 573.501 340.636 573.251 340.967 572.92C340.977 572.856 340.993 572.771 341.015 572.664L342.007 568.152C341.868 568.013 341.708 567.917 341.527 567.864C341.345 567.8 341.175 567.768 341.015 567.768C340.577 567.768 340.097 568.04 339.575 568.584C339.201 568.989 338.897 569.544 338.663 570.248C338.428 570.941 338.311 571.651 338.311 572.376ZM350.557 575.224C350.12 575.224 349.725 575.064 349.373 574.744C349.032 574.424 348.861 573.88 348.861 573.112C348.861 572.547 348.968 571.976 349.181 571.4C349.405 570.824 349.698 570.28 350.061 569.768C350.434 569.245 350.85 568.787 351.309 568.392C351.768 567.987 352.237 567.667 352.717 567.432C353.208 567.197 353.672 567.08 354.109 567.08C354.322 567.08 354.52 567.123 354.701 567.208C354.893 567.293 355.069 567.405 355.229 567.544L356.429 567.016L356.605 567.128L355.245 573.096C355.16 573.437 355.117 573.688 355.117 573.848C355.117 574.072 355.224 574.184 355.437 574.184C355.586 574.184 355.752 574.125 355.933 574.008C356.114 573.88 356.317 573.709 356.541 573.496L356.733 573.688C356.573 573.933 356.376 574.173 356.141 574.408C355.906 574.643 355.64 574.84 355.341 575C355.053 575.149 354.749 575.224 354.429 575.224C354.098 575.224 353.821 575.123 353.597 574.92C353.373 574.707 353.261 574.381 353.261 573.944C353.261 573.795 353.272 573.635 353.293 573.464C352.856 573.955 352.397 574.371 351.917 574.712C351.437 575.053 350.984 575.224 350.557 575.224ZM350.717 572.376C350.717 572.92 350.802 573.315 350.973 573.56C351.154 573.795 351.394 573.912 351.693 573.912C351.949 573.912 352.21 573.832 352.477 573.672C352.744 573.501 353.042 573.251 353.373 572.92C353.384 572.856 353.4 572.771 353.421 572.664L354.413 568.152C354.274 568.013 354.114 567.917 353.933 567.864C353.752 567.8 353.581 567.768 353.421 567.768C352.984 567.768 352.504 568.04 351.981 568.584C351.608 568.989 351.304 569.544 351.069 570.248C350.834 570.941 350.717 571.651 350.717 572.376ZM359.32 575.224C358.904 575.224 358.536 575.064 358.216 574.744C357.896 574.413 357.736 573.848 357.736 573.048C357.736 572.493 357.838 571.933 358.04 571.368C358.254 570.803 358.536 570.264 358.888 569.752C359.251 569.24 359.656 568.787 360.104 568.392C360.552 567.987 361.022 567.667 361.512 567.432C362.003 567.197 362.478 567.08 362.936 567.08C363.16 567.08 363.368 567.117 363.56 567.192L363.8 565.96C363.896 565.48 363.72 565.165 363.272 565.016L362.952 564.904L363 564.632L365.944 563.768L366.088 563.896L364.152 573.096C364.12 573.267 364.094 573.411 364.072 573.528C364.051 573.645 364.04 573.757 364.04 573.864C364.04 574.088 364.142 574.2 364.344 574.2C364.462 574.2 364.622 574.136 364.824 574.008C365.027 573.88 365.235 573.699 365.448 573.464L365.672 573.704C365.416 574.099 365.075 574.451 364.648 574.76C364.222 575.069 363.768 575.224 363.288 575.224C362.947 575.224 362.675 575.117 362.472 574.904C362.28 574.691 362.184 574.408 362.184 574.056C362.174 573.875 362.184 573.661 362.216 573.416C361.779 573.949 361.299 574.387 360.776 574.728C360.254 575.059 359.768 575.224 359.32 575.224ZM359.624 572.472C359.624 573.005 359.71 573.389 359.88 573.624C360.062 573.859 360.291 573.976 360.568 573.976C360.824 573.976 361.091 573.885 361.368 573.704C361.656 573.512 361.976 573.213 362.328 572.808V572.776L363.272 568.152C362.995 567.917 362.68 567.8 362.328 567.8C362.062 567.8 361.806 567.864 361.56 567.992C361.326 568.12 361.107 568.296 360.904 568.52C360.659 568.787 360.435 569.144 360.232 569.592C360.04 570.029 359.891 570.504 359.784 571.016C359.678 571.517 359.624 572.003 359.624 572.472ZM368.151 575.224C367.713 575.224 367.319 575.064 366.967 574.744C366.625 574.424 366.455 573.88 366.455 573.112C366.455 572.547 366.561 571.976 366.775 571.4C366.999 570.824 367.292 570.28 367.655 569.768C368.028 569.245 368.444 568.787 368.903 568.392C369.361 567.987 369.831 567.667 370.311 567.432C370.801 567.197 371.265 567.08 371.703 567.08C371.916 567.08 372.113 567.123 372.295 567.208C372.487 567.293 372.663 567.405 372.823 567.544L374.023 567.016L374.199 567.128L372.839 573.096C372.753 573.437 372.711 573.688 372.711 573.848C372.711 574.072 372.817 574.184 373.031 574.184C373.18 574.184 373.345 574.125 373.527 574.008C373.708 573.88 373.911 573.709 374.135 573.496L374.327 573.688C374.167 573.933 373.969 574.173 373.735 574.408C373.5 574.643 373.233 574.84 372.935 575C372.647 575.149 372.343 575.224 372.023 575.224C371.692 575.224 371.415 575.123 371.191 574.92C370.967 574.707 370.855 574.381 370.855 573.944C370.855 573.795 370.865 573.635 370.887 573.464C370.449 573.955 369.991 574.371 369.511 574.712C369.031 575.053 368.577 575.224 368.151 575.224ZM368.311 572.376C368.311 572.92 368.396 573.315 368.567 573.56C368.748 573.795 368.988 573.912 369.287 573.912C369.543 573.912 369.804 573.832 370.071 573.672C370.337 573.501 370.636 573.251 370.967 572.92C370.977 572.856 370.993 572.771 371.015 572.664L372.007 568.152C371.868 568.013 371.708 567.917 371.527 567.864C371.345 567.8 371.175 567.768 371.015 567.768C370.577 567.768 370.097 568.04 369.575 568.584C369.201 568.989 368.897 569.544 368.663 570.248C368.428 570.941 368.311 571.651 368.311 572.376ZM376.387 575.224C376.046 575.224 375.768 575.139 375.555 574.968C375.352 574.787 375.251 574.531 375.251 574.2C375.251 574.019 375.272 573.8 375.315 573.544C375.368 573.277 375.432 572.941 375.507 572.536L376.451 567.944C376.536 567.56 376.606 567.213 376.659 566.904C376.712 566.595 376.776 566.243 376.851 565.848C376.915 565.4 376.734 565.112 376.307 564.984L376.067 564.904L376.115 564.632L379.091 563.768L379.235 563.896L377.299 573.064C377.256 573.235 377.224 573.384 377.203 573.512C377.192 573.64 377.187 573.747 377.187 573.832C377.187 574.067 377.288 574.184 377.491 574.184C377.736 574.184 378.094 573.955 378.563 573.496L378.787 573.72C378.52 574.093 378.19 574.44 377.795 574.76C377.4 575.069 376.931 575.224 376.387 575.224ZM381.245 575.224C380.807 575.224 380.413 575.064 380.061 574.744C379.719 574.424 379.549 573.88 379.549 573.112C379.549 572.547 379.655 571.976 379.868 571.4C380.093 570.824 380.386 570.28 380.749 569.768C381.122 569.245 381.538 568.787 381.997 568.392C382.455 567.987 382.925 567.667 383.405 567.432C383.895 567.197 384.359 567.08 384.797 567.08C385.01 567.08 385.207 567.123 385.389 567.208C385.581 567.293 385.757 567.405 385.917 567.544L387.117 567.016L387.293 567.128L385.933 573.096C385.847 573.437 385.805 573.688 385.805 573.848C385.805 574.072 385.911 574.184 386.125 574.184C386.274 574.184 386.439 574.125 386.621 574.008C386.802 573.88 387.005 573.709 387.229 573.496L387.421 573.688C387.261 573.933 387.063 574.173 386.829 574.408C386.594 574.643 386.327 574.84 386.029 575C385.741 575.149 385.437 575.224 385.117 575.224C384.786 575.224 384.509 575.123 384.285 574.92C384.061 574.707 383.949 574.381 383.949 573.944C383.949 573.795 383.959 573.635 383.981 573.464C383.543 573.955 383.085 574.371 382.605 574.712C382.125 575.053 381.671 575.224 381.245 575.224ZM381.405 572.376C381.405 572.92 381.49 573.315 381.661 573.56C381.842 573.795 382.082 573.912 382.381 573.912C382.637 573.912 382.898 573.832 383.165 573.672C383.431 573.501 383.73 573.251 384.061 572.92C384.071 572.856 384.087 572.771 384.109 572.664L385.101 568.152C384.962 568.013 384.802 567.917 384.621 567.864C384.439 567.8 384.269 567.768 384.109 567.768C383.671 567.768 383.191 568.04 382.669 568.584C382.295 568.989 381.991 569.544 381.757 570.248C381.522 570.941 381.405 571.651 381.405 572.376ZM388.201 575.112L388.073 574.984L389.545 567.944C389.619 567.571 389.683 567.229 389.737 566.92C389.801 566.6 389.87 566.248 389.945 565.864C390.03 565.405 389.843 565.112 389.385 564.984L389.161 564.904L389.209 564.632L392.137 563.768L392.281 563.896L391.209 568.952C391.742 568.408 392.307 567.96 392.905 567.608C393.502 567.256 394.051 567.08 394.553 567.08C394.894 567.08 395.171 567.187 395.385 567.4C395.598 567.603 395.705 567.917 395.705 568.344C395.705 568.579 395.683 568.819 395.641 569.064C395.598 569.299 395.545 569.544 395.481 569.8L394.697 572.968C394.654 573.171 394.611 573.347 394.569 573.496C394.537 573.635 394.521 573.747 394.521 573.832C394.521 574.056 394.611 574.168 394.793 574.168C395.059 574.168 395.422 573.949 395.881 573.512L396.089 573.72C395.833 574.093 395.491 574.44 395.065 574.76C394.638 575.069 394.158 575.224 393.625 575.224C393.283 575.224 393.017 575.144 392.825 574.984C392.643 574.824 392.553 574.605 392.553 574.328C392.553 574.104 392.579 573.88 392.633 573.656C392.686 573.421 392.745 573.171 392.809 572.904L393.513 570.136C393.587 569.859 393.651 569.603 393.705 569.368C393.758 569.133 393.785 568.931 393.785 568.76C393.785 568.376 393.614 568.184 393.273 568.184C392.729 568.184 392.019 568.605 391.145 569.448L390.681 571.592C390.542 572.232 390.419 572.819 390.313 573.352C390.217 573.885 390.126 574.435 390.041 575L388.201 575.112ZM399.861 575L399.925 574.664L400.245 574.568C400.597 574.472 400.805 574.237 400.869 573.864L401.717 569.384C401.824 568.819 401.936 568.205 402.053 567.544C402.17 566.872 402.282 566.232 402.389 565.624C402.464 565.229 402.304 564.963 401.909 564.824L401.685 564.76L401.765 564.424H405.605L405.541 564.76L405.189 564.856C404.794 564.973 404.565 565.224 404.501 565.608L403.813 569.32H407.909C408.005 568.787 408.112 568.189 408.229 567.528C408.346 566.856 408.453 566.227 408.549 565.64C408.613 565.224 408.442 564.952 408.037 564.824L407.829 564.76L407.893 564.424H411.733L411.669 564.76L411.365 564.856C410.981 564.952 410.746 565.203 410.661 565.608L409.829 570.04C409.722 570.627 409.61 571.235 409.493 571.864C409.376 572.493 409.258 573.155 409.141 573.848C409.088 574.221 409.237 574.456 409.589 574.552L409.909 574.664L409.845 575H405.957L406.021 574.664L406.421 574.552C406.762 574.456 406.965 574.232 407.029 573.88L407.797 569.8H403.701C403.584 570.397 403.461 571.043 403.333 571.736C403.216 572.419 403.098 573.123 402.981 573.848C402.917 574.211 403.056 574.451 403.397 574.568L403.669 574.664L403.589 575H399.861ZM414.314 566.136C414.016 566.136 413.76 566.04 413.546 565.848C413.333 565.656 413.226 565.395 413.226 565.064C413.226 564.712 413.354 564.419 413.61 564.184C413.866 563.949 414.154 563.832 414.474 563.832C414.784 563.832 415.04 563.933 415.242 564.136C415.445 564.328 415.546 564.579 415.546 564.888C415.546 565.229 415.418 565.523 415.162 565.768C414.917 566.013 414.634 566.136 414.314 566.136ZM412.842 575.224C412.522 575.224 412.256 575.144 412.042 574.984C411.84 574.813 411.738 574.568 411.738 574.248C411.738 574.067 411.76 573.848 411.802 573.592C411.845 573.336 411.893 573.075 411.946 572.808L412.698 569.192C412.794 568.744 412.629 568.44 412.202 568.28L411.978 568.184L412.01 567.896L414.89 567.064L415.05 567.224L413.834 572.936C413.792 573.117 413.76 573.277 413.738 573.416C413.717 573.544 413.706 573.667 413.706 573.784C413.706 574.019 413.813 574.136 414.026 574.136C414.282 574.136 414.618 573.933 415.034 573.528L415.242 573.736C414.976 574.131 414.64 574.477 414.234 574.776C413.84 575.075 413.376 575.224 412.842 575.224ZM417.711 575.224C417.295 575.224 416.927 575.064 416.607 574.744C416.287 574.413 416.127 573.848 416.127 573.048C416.127 572.493 416.228 571.933 416.431 571.368C416.644 570.803 416.927 570.264 417.279 569.752C417.642 569.24 418.047 568.787 418.495 568.392C418.943 567.987 419.412 567.667 419.903 567.432C420.394 567.197 420.868 567.08 421.327 567.08C421.551 567.08 421.759 567.117 421.951 567.192L422.191 565.96C422.287 565.48 422.111 565.165 421.663 565.016L421.343 564.904L421.391 564.632L424.335 563.768L424.479 563.896L422.543 573.096C422.511 573.267 422.484 573.411 422.463 573.528C422.442 573.645 422.431 573.757 422.431 573.864C422.431 574.088 422.532 574.2 422.735 574.2C422.852 574.2 423.012 574.136 423.215 574.008C423.418 573.88 423.626 573.699 423.839 573.464L424.063 573.704C423.807 574.099 423.466 574.451 423.039 574.76C422.612 575.069 422.159 575.224 421.679 575.224C421.338 575.224 421.066 575.117 420.863 574.904C420.671 574.691 420.575 574.408 420.575 574.056C420.564 573.875 420.575 573.661 420.607 573.416C420.17 573.949 419.69 574.387 419.167 574.728C418.644 575.059 418.159 575.224 417.711 575.224ZM418.015 572.472C418.015 573.005 418.1 573.389 418.271 573.624C418.452 573.859 418.682 573.976 418.959 573.976C419.215 573.976 419.482 573.885 419.759 573.704C420.047 573.512 420.367 573.213 420.719 572.808V572.776L421.663 568.152C421.386 567.917 421.071 567.8 420.719 567.8C420.452 567.8 420.196 567.864 419.951 567.992C419.716 568.12 419.498 568.296 419.295 568.52C419.05 568.787 418.826 569.144 418.623 569.592C418.431 570.029 418.282 570.504 418.175 571.016C418.068 571.517 418.015 572.003 418.015 572.472ZM426.27 575.224C425.918 575.224 425.614 575.123 425.358 574.92C425.102 574.707 424.974 574.381 424.974 573.944C424.974 573.699 425 573.427 425.054 573.128C425.107 572.829 425.166 572.536 425.23 572.248L425.918 569.192C426.014 568.755 425.859 568.456 425.454 568.296L425.182 568.184L425.214 567.896L428.094 567.064L428.286 567.224L427.182 572.024C427.118 572.291 427.064 572.531 427.022 572.744C426.979 572.957 426.958 573.155 426.958 573.336C426.958 573.571 427.011 573.741 427.118 573.848C427.224 573.944 427.363 573.992 427.534 573.992C427.79 573.992 428.067 573.907 428.366 573.736C428.675 573.555 429.043 573.272 429.47 572.888L429.486 572.808L430.03 570.232C430.115 569.795 430.2 569.363 430.286 568.936C430.371 568.499 430.451 568.061 430.526 567.624L432.398 567.064L432.606 567.224L431.358 572.936C431.326 573.117 431.294 573.283 431.262 573.432C431.24 573.581 431.23 573.704 431.23 573.8C431.23 573.907 431.262 573.992 431.326 574.056C431.39 574.109 431.459 574.136 431.534 574.136C431.683 574.136 431.832 574.083 431.982 573.976C432.142 573.859 432.339 573.688 432.574 573.464L432.814 573.704C432.547 574.077 432.211 574.424 431.806 574.744C431.411 575.064 430.958 575.224 430.446 575.224C430.136 575.224 429.87 575.117 429.646 574.904C429.432 574.691 429.326 574.381 429.326 573.976C429.326 573.816 429.336 573.645 429.358 573.464C428.803 574.019 428.264 574.451 427.742 574.76C427.23 575.069 426.739 575.224 426.27 575.224ZM436.139 575.224C435.851 575.224 435.579 575.165 435.323 575.048C435.217 575.571 435.121 576.035 435.035 576.44C434.961 576.856 434.891 577.251 434.827 577.624C434.763 577.987 434.907 578.216 435.259 578.312L435.659 578.408L435.595 578.696H431.851L431.915 578.408L432.203 578.344C432.587 578.227 432.817 577.987 432.891 577.624L434.667 569.16C434.742 568.733 434.582 568.44 434.187 568.28L433.931 568.184L433.963 567.896L436.779 567.064L436.971 567.208L436.635 568.872C437.062 568.339 437.547 567.907 438.091 567.576C438.635 567.245 439.137 567.08 439.595 567.08C440.033 567.08 440.406 567.235 440.715 567.544C441.035 567.853 441.195 568.408 441.195 569.208C441.195 569.784 441.094 570.36 440.891 570.936C440.699 571.512 440.433 572.061 440.091 572.584C439.75 573.096 439.361 573.549 438.923 573.944C438.486 574.339 438.027 574.653 437.547 574.888C437.078 575.112 436.609 575.224 436.139 575.224ZM438.283 568.312C438.038 568.312 437.761 568.413 437.451 568.616C437.142 568.808 436.827 569.08 436.507 569.432L435.611 573.864C435.995 574.227 436.39 574.408 436.795 574.408C437.446 574.408 437.99 574.061 438.427 573.368C438.587 573.112 438.731 572.797 438.859 572.424C438.998 572.04 439.105 571.629 439.179 571.192C439.265 570.755 439.307 570.333 439.307 569.928C439.307 569.405 439.222 569.005 439.051 568.728C438.881 568.451 438.625 568.312 438.283 568.312ZM448.08 575.272C447.547 575.272 447.008 575.203 446.464 575.064C445.931 574.925 445.477 574.739 445.104 574.504L445.456 572.152H445.888L446.288 573.384C446.437 573.885 446.651 574.248 446.928 574.472C447.205 574.685 447.605 574.792 448.128 574.792C448.747 574.792 449.237 574.616 449.6 574.264C449.963 573.912 450.144 573.475 450.144 572.952C450.144 572.685 450.101 572.435 450.016 572.2C449.931 571.955 449.771 571.704 449.536 571.448C449.301 571.181 448.955 570.883 448.496 570.552C447.931 570.147 447.488 569.763 447.168 569.4C446.859 569.027 446.645 568.664 446.528 568.312C446.411 567.96 446.352 567.608 446.352 567.256C446.352 566.637 446.512 566.093 446.832 565.624C447.152 565.155 447.595 564.792 448.16 564.536C448.725 564.269 449.371 564.136 450.096 564.136C450.597 564.136 451.109 564.205 451.632 564.344C452.155 564.483 452.597 564.675 452.96 564.92L452.544 567.176H452.096L451.84 566.136C451.701 565.603 451.499 565.219 451.232 564.984C450.965 564.749 450.571 564.632 450.048 564.632C449.536 564.632 449.088 564.781 448.704 565.08C448.331 565.379 448.144 565.795 448.144 566.328C448.144 566.765 448.261 567.165 448.496 567.528C448.741 567.891 449.173 568.301 449.792 568.76C450.645 569.379 451.232 569.939 451.552 570.44C451.872 570.941 452.032 571.475 452.032 572.04C452.032 572.701 451.861 573.277 451.52 573.768C451.189 574.248 450.725 574.621 450.128 574.888C449.541 575.144 448.859 575.272 448.08 575.272ZM456.004 575.224C455.214 575.224 454.569 574.968 454.068 574.456C453.577 573.944 453.332 573.203 453.332 572.232C453.332 571.56 453.449 570.915 453.684 570.296C453.918 569.677 454.238 569.128 454.644 568.648C455.06 568.157 455.545 567.773 456.1 567.496C456.654 567.219 457.252 567.08 457.892 567.08C458.553 567.08 459.054 567.229 459.396 567.528C459.748 567.827 459.924 568.227 459.924 568.728C459.924 569.336 459.518 569.939 458.708 570.536C457.908 571.123 456.745 571.581 455.22 571.912C455.252 572.605 455.417 573.112 455.716 573.432C456.014 573.752 456.425 573.912 456.948 573.912C457.417 573.912 457.838 573.789 458.212 573.544C458.585 573.299 458.9 573.011 459.156 572.68L459.396 572.856C459.182 573.261 458.905 573.645 458.564 574.008C458.233 574.371 457.854 574.664 457.428 574.888C457.001 575.112 456.526 575.224 456.004 575.224ZM457.732 567.624C457.486 567.624 457.225 567.731 456.948 567.944C456.67 568.147 456.404 568.429 456.148 568.792C455.902 569.144 455.694 569.555 455.524 570.024C455.353 570.483 455.252 570.973 455.22 571.496C456.414 571.144 457.252 570.707 457.732 570.184C458.222 569.661 458.468 569.107 458.468 568.52C458.468 568.211 458.398 567.987 458.26 567.848C458.121 567.699 457.945 567.624 457.732 567.624ZM460.123 575.112L459.995 574.984L461.467 567.944C461.541 567.571 461.605 567.229 461.659 566.92C461.723 566.6 461.792 566.248 461.867 565.864C461.952 565.405 461.765 565.112 461.307 564.984L461.083 564.904L461.131 564.632L464.059 563.768L464.203 563.896L463.131 568.952C463.664 568.408 464.229 567.96 464.827 567.608C465.424 567.256 465.973 567.08 466.475 567.08C466.816 567.08 467.093 567.187 467.307 567.4C467.52 567.603 467.627 567.917 467.627 568.344C467.627 568.579 467.605 568.819 467.562 569.064C467.52 569.299 467.467 569.544 467.403 569.8L466.619 572.968C466.576 573.171 466.533 573.347 466.491 573.496C466.459 573.635 466.443 573.747 466.443 573.832C466.443 574.056 466.533 574.168 466.715 574.168C466.981 574.168 467.344 573.949 467.803 573.512L468.01 573.72C467.755 574.093 467.413 574.44 466.987 574.76C466.56 575.069 466.08 575.224 465.547 575.224C465.205 575.224 464.939 575.144 464.747 574.984C464.565 574.824 464.475 574.605 464.475 574.328C464.475 574.104 464.501 573.88 464.555 573.656C464.608 573.421 464.667 573.171 464.731 572.904L465.435 570.136C465.509 569.859 465.573 569.603 465.627 569.368C465.68 569.133 465.707 568.931 465.707 568.76C465.707 568.376 465.536 568.184 465.195 568.184C464.651 568.184 463.941 568.605 463.067 569.448L462.603 571.592C462.464 572.232 462.341 572.819 462.235 573.352C462.139 573.885 462.048 574.435 461.963 575L460.123 575.112ZM470.604 575.224C470.167 575.224 469.772 575.064 469.42 574.744C469.079 574.424 468.908 573.88 468.908 573.112C468.908 572.547 469.015 571.976 469.228 571.4C469.452 570.824 469.745 570.28 470.108 569.768C470.481 569.245 470.897 568.787 471.356 568.392C471.815 567.987 472.284 567.667 472.764 567.432C473.255 567.197 473.719 567.08 474.156 567.08C474.369 567.08 474.567 567.123 474.748 567.208C474.94 567.293 475.116 567.405 475.276 567.544L476.476 567.016L476.652 567.128L475.292 573.096C475.207 573.437 475.164 573.688 475.164 573.848C475.164 574.072 475.271 574.184 475.484 574.184C475.633 574.184 475.799 574.125 475.98 574.008C476.161 573.88 476.364 573.709 476.588 573.496L476.78 573.688C476.62 573.933 476.423 574.173 476.188 574.408C475.953 574.643 475.687 574.84 475.388 575C475.1 575.149 474.796 575.224 474.476 575.224C474.145 575.224 473.868 575.123 473.644 574.92C473.42 574.707 473.308 574.381 473.308 573.944C473.308 573.795 473.319 573.635 473.34 573.464C472.903 573.955 472.444 574.371 471.964 574.712C471.484 575.053 471.031 575.224 470.604 575.224ZM470.764 572.376C470.764 572.92 470.849 573.315 471.02 573.56C471.201 573.795 471.441 573.912 471.74 573.912C471.996 573.912 472.257 573.832 472.524 573.672C472.791 573.501 473.089 573.251 473.42 572.92C473.431 572.856 473.447 572.771 473.468 572.664L474.46 568.152C474.321 568.013 474.161 567.917 473.98 567.864C473.799 567.8 473.628 567.768 473.468 567.768C473.031 567.768 472.551 568.04 472.028 568.584C471.655 568.989 471.351 569.544 471.116 570.248C470.881 570.941 470.764 571.651 470.764 572.376ZM479.304 575.224C478.974 575.224 478.702 575.144 478.488 574.984C478.286 574.813 478.184 574.563 478.184 574.232C478.184 573.827 478.248 573.336 478.376 572.76L479.448 567.8H478.088L478.152 567.464L478.792 567.4C479.336 567.325 479.784 567.069 480.136 566.632L481.384 565.128H481.88L481.432 567.32H483.208L483.112 567.832L481.32 567.8L480.264 572.92C480.222 573.112 480.19 573.283 480.168 573.432C480.147 573.571 480.136 573.688 480.136 573.784C480.136 573.891 480.168 573.976 480.232 574.04C480.296 574.104 480.371 574.136 480.456 574.136C480.68 574.136 481.022 573.907 481.48 573.448L481.736 573.656C481.47 574.051 481.128 574.413 480.712 574.744C480.307 575.064 479.838 575.224 479.304 575.224Z" fill="white"/>
<g clip-path="url(#clip0_545_1491)">
<path d="M157.45 203.729C170.609 203.729 182.755 205.456 193.92 208.91C205.054 212.363 215.802 216.203 226.132 220.431C236.493 224.659 246.734 228.588 256.946 232.191C267.128 235.793 277.875 237.609 289.159 237.609L368.172 398.493V280.39C368.172 273.186 367.309 267.38 365.582 262.974C363.855 258.598 361.742 255.144 359.241 252.614C356.74 249.786 353.763 247.761 350.309 246.511V237.103H423.696V246.511C420.243 247.761 417.265 249.815 414.765 252.614C412.562 255.115 410.537 258.568 408.662 262.974C406.786 267.38 405.833 273.156 405.833 280.39L392.644 416.148C392.644 423.352 406.756 503.139 408.632 507.367C410.507 511.594 412.562 514.988 414.735 517.489C417.236 520.317 420.213 522.342 423.666 523.592V533H350.309L236.493 300.635V490.189C236.791 497.394 237.833 503.11 239.559 507.367C241.286 511.594 243.251 514.988 245.424 517.489C248.253 520.317 251.23 522.342 254.356 523.592V533H180.493V523.592C183.946 522.342 186.923 520.288 189.424 517.489C191.925 514.988 194.039 511.594 195.765 507.367C197.492 503.139 198.356 497.423 198.356 490.189V266.279C198.356 260.95 197.582 255.531 196.004 250.053C194.426 244.576 192.014 239.634 188.71 235.227C185.405 230.851 181.267 227.308 176.235 224.659C171.204 222.009 165.101 221.086 157.896 220.669C91.9522 216.68 67.6884 253.656 75.3695 242.521C83.0505 231.387 93.7087 222.128 107.344 214.774C121.009 207.421 137.711 203.729 157.45 203.729Z" fill="#EAFFB8"/>
<path d="M431.734 311.71L421.344 334.634L438.612 317.426L431.734 311.71Z" fill="#D9FFB7"/>
<path d="M517 479.948C511.969 489.742 505.24 498.555 496.845 506.414C489.551 512.845 480.054 518.888 468.294 524.485C456.534 530.082 441.827 532.881 424.202 532.881C403.481 532.881 386.124 528.326 372.132 519.246C358.139 510.165 347.57 498.733 340.425 485.009C333.28 471.284 329.707 456.398 329.707 440.292C329.707 424.186 333.488 409.3 341.05 395.576C345.159 388.103 353.793 366.906 356.77 375.212C377.788 434.04 367.279 370.449 368.857 362.589C371.834 347.703 409.376 347.703 432.598 347.703C443.524 347.703 453.587 348.835 462.846 351.068C472.075 353.3 480.054 356.456 486.782 360.505C493.51 364.554 498.691 369.466 502.323 375.212C505.955 380.958 507.771 387.329 507.771 394.325C507.771 403.554 504.347 412.099 497.47 419.929C490.593 427.758 481.989 434.755 471.658 440.917C461.298 447.08 449.955 452.26 437.629 456.458C425.304 460.656 418.456 464.824 407.53 466.789C410.894 474.916 411.013 480.394 417.474 485.455C423.905 490.487 432.181 493.017 442.244 493.017C452.307 493.017 461.417 491.975 469.544 489.861C477.672 487.748 484.668 485.455 490.533 482.925C496.964 479.858 502.859 476.494 508.158 472.832L517 479.948ZM439.713 370.359C431.883 370.359 425.006 372.801 419.141 377.713C413.276 382.625 408.572 388.907 405.059 396.618C401.546 404.328 399.194 412.783 397.914 422.013C396.664 431.242 396.723 440.352 398.122 449.313C409.049 445.115 418.843 438.595 427.507 429.783C436.17 420.971 442.69 412.158 447.037 403.316C451.384 394.504 453.14 386.793 452.277 380.214C451.473 373.634 447.275 370.359 439.713 370.359Z" fill="#EAFFB8"/>
<path d="M400.98 219.508C386.124 232.518 371.12 220.223 371.12 220.223C371.12 220.223 371.715 218.883 373.829 218.675C373.829 218.675 367.577 215.429 366.624 212.333C366.624 212.333 368.232 211.053 369.869 211.381C369.869 211.381 362.813 206.141 362.605 202.777C362.605 202.777 364.629 201.675 366.356 202.092C366.356 202.092 361.712 197.864 361.861 194.47C361.861 194.47 364.213 194.203 365.552 194.649C365.552 194.649 358.08 187.206 362.277 175.06C362.277 175.06 373.65 174.077 380.17 181.818C380.17 181.818 379.813 179.704 380.557 178.364C380.557 178.364 385.529 180.15 387.375 182.741C387.375 182.741 387.613 180.21 388.685 179.406C388.685 179.406 394.103 182.949 395.89 186.551C395.89 186.551 396.753 184.289 397.944 183.931C397.944 183.931 401.665 188.159 402.261 191.97C402.261 191.97 403.243 190.302 404.523 189.737C404.523 189.737 417.831 204.742 400.98 219.508Z" fill="#EAFFB8"/>
<path d="M365.552 194.619C364.213 194.173 361.861 194.441 361.861 194.441C361.712 197.835 366.356 202.062 366.356 202.062C364.629 201.645 362.605 202.747 362.605 202.747C362.813 206.111 369.869 211.351 369.869 211.351C368.232 211.023 366.624 212.303 366.624 212.303C367.577 215.4 373.829 218.645 373.829 218.645C371.715 218.853 371.12 220.193 371.12 220.193C371.12 220.193 386.124 232.488 400.98 219.478C401.338 219.181 401.665 218.853 401.993 218.555C381.361 202.241 362.277 175.03 362.277 175.03C358.08 187.176 365.552 194.619 365.552 194.619Z" fill="#D9FFB7"/>
<path d="M406.458 222.009C406.28 222.128 406.012 222.128 405.833 222.009C383.892 206.319 365.284 179.734 365.106 179.466C364.927 179.228 364.987 178.87 365.255 178.721C365.493 178.543 365.85 178.602 365.999 178.87C366.178 179.138 384.695 205.605 406.488 221.146C406.726 221.324 406.786 221.652 406.607 221.89C406.577 221.92 406.518 221.979 406.458 222.009Z" fill="#F1FFD0"/>
<path d="M373.382 190.124C373.293 190.183 373.174 190.243 373.025 190.213C369.512 189.945 364.838 186.998 364.629 186.879C364.361 186.73 364.302 186.373 364.451 186.134C364.6 185.867 364.957 185.807 365.195 185.956C365.225 185.986 369.423 188.635 372.638 189.082C372.936 187.951 373.62 184.705 373.263 181.52C373.233 181.222 373.442 180.954 373.739 180.925C374.037 180.895 374.305 181.103 374.335 181.401C374.781 185.599 373.591 189.677 373.561 189.826C373.561 189.975 373.501 190.064 373.382 190.124Z" fill="#F1FFD0"/>
<path d="M382.85 200.544C382.79 200.603 382.701 200.633 382.611 200.633C377.312 201.258 368.202 198.936 367.815 198.817C367.517 198.728 367.339 198.46 367.428 198.162C367.487 197.864 367.785 197.686 368.083 197.775C368.172 197.805 376.955 200.038 382.105 199.591C382.403 197.894 383.505 191.017 382.195 184.705C382.135 184.408 382.314 184.11 382.611 184.05C382.909 183.991 383.207 184.17 383.266 184.467C384.785 191.94 383.177 199.859 383.118 200.187C383.058 200.365 382.969 200.484 382.85 200.544Z" fill="#F1FFD0"/>
<path d="M392.228 210.249C392.168 210.309 392.079 210.339 391.989 210.339C385.231 211.381 373.65 210.011 373.144 209.952C372.846 209.922 372.638 209.654 372.668 209.356C372.697 209.058 372.965 208.85 373.263 208.88C373.382 208.88 384.874 210.249 391.543 209.297C392.228 208.016 395.562 201.169 394.073 191.374C394.014 191.076 394.222 190.809 394.52 190.749C394.818 190.689 395.086 190.898 395.145 191.196C396.842 202.419 392.525 209.743 392.347 210.041C392.347 210.13 392.287 210.19 392.228 210.249Z" fill="#F1FFD0"/>
<path d="M400.296 217.186C400.266 217.216 400.266 217.216 400.236 217.216C392.972 220.848 380.706 220.312 380.2 220.282C379.902 220.282 379.664 220.014 379.694 219.717C379.694 219.419 379.962 219.181 380.259 219.21C380.379 219.21 392.644 219.746 399.67 216.293C400.266 215.578 404.88 209.624 404.017 198.847C403.987 198.549 404.226 198.281 404.523 198.251C404.821 198.222 405.089 198.46 405.119 198.758C406.101 210.726 400.683 216.858 400.445 217.097C400.355 217.126 400.325 217.156 400.296 217.186Z" fill="#F1FFD0"/>
</g>
<defs>
<clipPath id="clip0_545_1491">
<rect width="443" height="358" fill="white" transform="translate(74 175)"/>
</clipPath>
</defs>
</svg>
