<svg width="443" height="358" viewBox="0 0 443 358" fill="none" xmlns="http://www.w3.org/2000/svg">
<g clip-path="url(#clip0_545_1471)">
<path d="M83.4495 28.7293C96.6085 28.7293 108.755 30.456 119.92 33.9095C131.054 37.363 141.802 41.2035 152.132 45.431C162.493 49.6585 172.734 53.5884 182.946 57.1907C193.128 60.793 203.875 62.6091 215.159 62.6091L294.172 223.493V105.39C294.172 98.1858 293.309 92.3804 291.582 87.9742C289.855 83.5978 287.742 80.1444 285.241 77.6138C282.74 74.7855 279.763 72.7611 276.309 71.5107V62.103H349.696V71.5107C346.243 72.7611 343.265 74.8153 340.765 77.6138C338.562 80.1146 336.537 83.5681 334.662 87.9742C332.786 92.3804 331.833 98.156 331.833 105.39L318.644 241.148C318.644 248.352 332.756 328.139 334.632 332.367C336.507 336.594 338.562 339.988 340.735 342.489C343.236 345.317 346.213 347.342 349.666 348.592V358H276.309L162.493 125.635V315.189C162.791 322.394 163.833 328.11 165.559 332.367C167.286 336.594 169.251 339.988 171.424 342.489C174.253 345.317 177.23 347.342 180.356 348.592V358H106.493V348.592C109.946 347.342 112.923 345.288 115.424 342.489C117.925 339.988 120.039 336.594 121.765 332.367C123.492 328.139 124.356 322.423 124.356 315.189V91.2788C124.356 85.9498 123.582 80.5314 122.004 75.0535C120.426 69.5755 118.014 64.6335 114.71 60.2274C111.405 55.851 107.267 52.3082 102.235 49.6585C97.204 47.0089 91.1008 46.086 83.8961 45.6692C17.9522 41.6798 -6.31156 78.6558 1.36949 67.5213C9.05054 56.3869 19.7087 47.128 33.3441 39.7745C47.0092 32.421 63.711 28.7293 83.4495 28.7293Z" fill="#EAFFB8"/>
<path d="M357.734 136.71L347.344 159.634L364.612 142.426L357.734 136.71Z" fill="#D9FFB7"/>
<path d="M443 304.948C437.969 314.742 431.24 323.555 422.845 331.414C415.551 337.845 406.054 343.888 394.294 349.485C382.534 355.082 367.827 357.881 350.202 357.881C329.481 357.881 312.124 353.326 298.132 344.246C284.139 335.165 273.57 323.733 266.425 310.009C259.28 296.284 255.707 281.398 255.707 265.292C255.707 249.186 259.488 234.3 267.05 220.576C271.159 213.103 279.793 191.906 282.77 200.212C303.788 259.04 293.279 195.449 294.857 187.589C297.834 172.703 335.376 172.703 358.598 172.703C369.524 172.703 379.587 173.835 388.846 176.068C398.075 178.3 406.054 181.456 412.782 185.505C419.51 189.554 424.691 194.466 428.323 200.212C431.955 205.958 433.771 212.329 433.771 219.325C433.771 228.554 430.347 237.099 423.47 244.929C416.593 252.758 407.989 259.755 397.658 265.917C387.298 272.08 375.955 277.26 363.629 281.458C351.304 285.656 344.456 289.824 333.53 291.789C336.894 299.916 337.013 305.394 343.474 310.455C349.905 315.487 358.181 318.017 368.244 318.017C378.307 318.017 387.417 316.975 395.544 314.861C403.672 312.748 410.668 310.455 416.533 307.925C422.964 304.858 428.859 301.494 434.158 297.832L443 304.948ZM365.713 195.359C357.883 195.359 351.006 197.801 345.141 202.713C339.276 207.625 334.572 213.907 331.059 221.618C327.546 229.328 325.194 237.783 323.914 247.013C322.664 256.242 322.723 265.352 324.122 274.313C335.049 270.115 344.843 263.595 353.507 254.783C362.17 245.971 368.69 237.158 373.037 228.316C377.384 219.504 379.14 211.793 378.277 205.214C377.473 198.634 373.275 195.359 365.713 195.359Z" fill="#EAFFB8"/>
<path d="M326.98 44.5081C312.124 57.5182 297.12 45.2226 297.12 45.2226C297.12 45.2226 297.715 43.8829 299.829 43.6745C299.829 43.6745 293.577 40.4295 292.624 37.3332C292.624 37.3332 294.232 36.0531 295.869 36.3806C295.869 36.3806 288.813 31.1408 288.605 27.7766C288.605 27.7766 290.629 26.6751 292.356 27.0919C292.356 27.0919 287.712 22.8644 287.861 19.4705C287.861 19.4705 290.213 19.2025 291.552 19.6491C291.552 19.6491 284.08 12.2063 288.277 0.0595555C288.277 0.0595555 299.65 -0.922897 306.17 6.81764C306.17 6.81764 305.813 4.70388 306.557 3.36417C306.557 3.36417 311.529 5.15045 313.375 7.74055C313.375 7.74055 313.613 5.20999 314.685 4.40617C314.685 4.40617 320.103 7.94895 321.89 11.5513C321.89 11.5513 322.753 9.28866 323.944 8.93141C323.944 8.93141 327.665 13.1589 328.261 16.9697C328.261 16.9697 329.243 15.3025 330.523 14.7368C330.523 14.7368 343.831 29.7416 326.98 44.5081Z" fill="#EAFFB8"/>
<path d="M291.552 19.6193C290.213 19.1727 287.861 19.4407 287.861 19.4407C287.712 22.8346 292.356 27.0621 292.356 27.0621C290.629 26.6453 288.605 27.7469 288.605 27.7469C288.813 31.111 295.869 36.3508 295.869 36.3508C294.232 36.0233 292.624 37.3035 292.624 37.3035C293.577 40.3997 299.829 43.6448 299.829 43.6448C297.715 43.8531 297.12 45.1929 297.12 45.1929C297.12 45.1929 312.124 57.4884 326.98 44.4783C327.338 44.1806 327.665 43.8532 327.993 43.5554C307.361 27.2408 288.277 0.0297852 288.277 0.0297852C284.08 12.1765 291.552 19.6193 291.552 19.6193Z" fill="#D9FFB7"/>
<path d="M332.458 47.0089C332.28 47.128 332.012 47.128 331.833 47.0089C309.892 31.3194 291.284 4.73365 291.106 4.46571C290.927 4.22754 290.987 3.87029 291.255 3.72143C291.493 3.5428 291.85 3.60234 291.999 3.87029C292.178 4.13823 310.695 30.6049 332.488 46.1455C332.726 46.3242 332.786 46.6517 332.607 46.8898C332.577 46.9196 332.518 46.9791 332.458 47.0089Z" fill="#F1FFD0"/>
<path d="M299.382 15.1239C299.293 15.1834 299.174 15.2429 299.025 15.2132C295.512 14.9452 290.838 11.9979 290.629 11.8788C290.361 11.7299 290.302 11.3727 290.451 11.1345C290.6 10.8666 290.957 10.807 291.195 10.9559C291.225 10.9856 295.423 13.6353 298.638 14.0819C298.936 12.9506 299.62 9.70548 299.263 6.51995C299.233 6.22223 299.442 5.95429 299.739 5.92452C300.037 5.89475 300.305 6.10315 300.335 6.40086C300.781 10.5986 299.591 14.6773 299.561 14.8261C299.561 14.975 299.501 15.0643 299.382 15.1239Z" fill="#F1FFD0"/>
<path d="M308.85 25.5438C308.79 25.6033 308.701 25.6331 308.611 25.6331C303.312 26.2583 294.202 23.9361 293.815 23.817C293.517 23.7277 293.339 23.4598 293.428 23.1621C293.487 22.8644 293.785 22.6857 294.083 22.775C294.172 22.8048 302.955 25.0377 308.105 24.5911C308.403 22.8941 309.505 16.017 308.195 9.70544C308.135 9.40773 308.314 9.11001 308.611 9.05047C308.909 8.99093 309.207 9.16956 309.266 9.46727C310.785 16.9399 309.177 24.859 309.118 25.1865C309.058 25.3651 308.969 25.4842 308.85 25.5438Z" fill="#F1FFD0"/>
<path d="M318.228 35.2492C318.168 35.3088 318.079 35.3385 317.989 35.3385C311.231 36.3805 299.65 35.0111 299.144 34.9515C298.846 34.9217 298.638 34.6538 298.668 34.3561C298.697 34.0584 298.965 33.85 299.263 33.8797C299.382 33.8797 310.874 35.2492 317.543 34.2965C318.228 33.0164 321.562 26.169 320.073 16.3742C320.014 16.0765 320.222 15.8086 320.52 15.749C320.818 15.6895 321.086 15.8979 321.145 16.1956C322.842 27.4194 318.525 34.7431 318.347 35.0408C318.347 35.1301 318.287 35.1897 318.228 35.2492Z" fill="#F1FFD0"/>
<path d="M326.296 42.186C326.266 42.2157 326.266 42.2157 326.236 42.2157C318.972 45.8478 306.706 45.312 306.2 45.2822C305.902 45.2822 305.664 45.0142 305.694 44.7165C305.694 44.4188 305.962 44.1807 306.259 44.2104C306.379 44.2104 318.644 44.7463 325.67 41.2928C326.266 40.5783 330.88 34.6241 330.017 23.8468C329.987 23.5491 330.226 23.2812 330.523 23.2514C330.821 23.2216 331.089 23.4598 331.119 23.7575C332.101 35.7256 326.683 41.8585 326.445 42.0967C326.355 42.1264 326.325 42.1562 326.296 42.186Z" fill="#F1FFD0"/>
</g>
<defs>
<clipPath id="clip0_545_1471">
<rect width="443" height="358" fill="white"/>
</clipPath>
</defs>
</svg>
