<svg width="931" height="216" viewBox="0 0 931 216" fill="none" xmlns="http://www.w3.org/2000/svg">
<g clip-path="url(#clip0_57_258)">
<path d="M868.537 20.0264L851.209 58.1169L879.98 29.5298L868.537 20.0264Z" fill="#4E712E"/>
<path d="M54.0879 0C62.617 0 70.49 1.11578 77.7262 3.34735C84.9431 5.57891 91.9091 8.06056 98.605 10.7923C105.32 13.524 111.958 16.0634 118.577 18.3912C125.176 20.7189 132.142 21.8924 139.456 21.8924L190.669 125.853V49.5369C190.669 44.8814 190.109 41.13 188.99 38.2829C187.871 35.4549 186.501 33.2234 184.88 31.5882C183.259 29.7606 181.329 28.4524 179.091 27.6445V21.5654H226.657V27.6445C224.418 28.4524 222.489 29.7798 220.868 31.5882C219.44 33.2041 218.128 35.4357 216.912 38.2829C215.696 41.13 215.079 44.8621 215.079 49.5369V185.104C215.079 189.76 215.696 193.454 216.912 196.204C218.128 198.936 219.459 201.129 220.868 202.745C222.489 204.573 224.418 205.881 226.657 206.689V212.768H179.091L105.32 62.6185V185.104C105.513 189.76 106.189 193.454 107.308 196.204C108.427 198.936 109.701 201.129 111.109 202.745C112.942 204.573 114.872 205.881 116.898 206.689V212.768H69.0234V206.689C71.2618 205.881 73.1915 204.554 74.8124 202.745C76.4333 201.129 77.8034 198.936 78.9226 196.204C80.0418 193.473 80.6014 189.779 80.6014 185.104V40.4182C80.6014 36.9747 80.0997 33.4735 79.0769 29.9337C78.0542 26.394 76.4912 23.2006 74.3493 20.3534C72.2074 17.5255 69.5252 15.2362 66.264 13.524C63.0029 11.8119 59.0471 11.2155 54.3774 10.9462C11.6355 8.36837 -4.09114 32.2807 0.887372 25.0859C5.86588 17.891 12.774 11.9081 21.6119 7.13716C30.469 2.38546 41.2943 0 54.0879 0Z" fill="#7B9933"/>
<path d="M446.869 202.322C445.036 204.958 442.798 207.189 440.154 209.017C437.916 210.844 435.118 212.46 431.76 213.884C428.402 215.307 424.389 216.019 419.719 216.019C414.026 216.019 408.585 215.307 403.413 213.884C398.223 212.46 393.649 210.286 389.694 207.343C385.738 204.4 382.573 200.648 380.238 196.089C377.903 191.53 376.63 186.22 376.418 180.141V97.4578H356.021V83.4913L360.903 83.4143C370.05 83.4143 378.675 80.7211 385.583 75.1422C392.492 69.5632 398.281 63.4457 402.97 56.751C408.45 49.0559 413.235 40.2451 417.307 30.2993H422.787V83.4913H443.222V97.477H422.787V188.663C422.787 193.934 423.752 197.532 425.682 199.456C427.611 201.379 429.792 202.341 432.242 202.341C433.863 202.341 435.291 202.033 436.507 201.437C437.723 200.841 438.745 200.225 439.556 199.61C440.579 198.802 441.485 197.897 442.296 196.878L446.869 202.322Z" fill="#7B9933"/>
<path d="M480.908 82.3755C484.575 81.7599 487.72 81.4713 490.363 81.4713C495.844 81.4713 499.452 82.9911 501.189 86.0306C502.906 89.0702 503.775 94.2451 503.775 101.536V110.039C504.585 101.729 506.476 92.1674 509.409 81.3174C512.362 70.4866 516.723 60.0983 522.512 50.1717C528.3 40.2451 535.672 31.896 544.625 25.0859C553.56 18.295 564.539 14.9091 577.545 14.9091C587.309 14.9091 594.97 17.2946 600.566 22.0463C606.162 26.8172 608.941 34.0506 608.941 43.7848C608.941 47.44 608.227 50.8258 606.799 53.9615C605.371 57.0973 603.499 59.8482 601.164 62.176C598.829 64.5037 596.031 66.389 592.77 67.7934C589.509 69.217 586.055 69.9287 582.408 69.9287C576.928 69.9287 571.93 68.3705 567.472 65.2155C562.996 62.0798 559.754 57.9822 557.708 52.9035C557.303 51.6915 556.686 50.5757 555.875 49.5561C554.447 47.3245 552.518 46.2088 550.086 46.2088C545.609 46.2088 540.882 49.7485 535.903 56.8472C530.925 63.9458 526.197 72.8144 521.72 83.4528C517.244 94.0912 513.384 105.595 510.142 117.946C506.881 130.316 504.759 141.858 503.736 152.593V183.892C503.929 188.548 504.604 192.299 505.724 195.146C506.843 197.994 508.116 200.206 509.525 201.841C511.358 203.669 513.288 204.977 515.314 205.785V211.864H445.499V205.785C447.737 204.977 449.667 203.649 451.288 201.841C452.909 200.225 454.279 197.994 455.398 195.146C456.517 192.318 457.077 188.567 457.077 183.892V105.48C457.077 100.209 455.495 96.265 452.349 93.6295C449.204 90.9939 445.904 89.6858 442.45 89.6858V84.5109C448.953 84.5109 455.36 84.4147 461.65 84.2031C467.999 83.9914 474.405 83.3951 480.908 82.3755ZM612.53 73.0837L615.617 78.8358C613.591 79.8554 611.874 81.3944 610.465 83.4143C609.249 85.0495 608.092 87.2811 606.992 90.1282C605.892 92.9754 605.352 96.7268 605.371 101.382L605.834 183.758C605.853 188.413 606.529 192.165 607.879 194.993C609.211 197.82 610.6 200.052 612.028 201.649C613.456 203.265 615.289 204.573 617.547 205.573L617.586 211.652L548.079 212.037L548.041 205.958C550.279 205.131 552.19 203.803 553.811 201.976C555.431 200.341 558.577 197.82 559.677 194.973C560.777 192.126 561.876 190.587 561.838 185.912L561.413 107.5C561.375 102.229 557.438 96.3805 554.274 93.7642C551.109 91.1478 547.79 89.8397 544.336 89.8589L544.317 84.684C555.702 84.6263 567.337 84.0492 579.224 82.9719C591.091 81.9138 602.206 78.6049 612.53 73.0837Z" fill="#7B9933"/>
<path d="M628.565 172.638C633.853 172.638 637.712 173.966 640.143 176.582C642.575 179.218 644.909 182.103 647.148 185.239C649.386 188.375 652.068 191.28 655.233 193.896C658.378 196.532 663.106 197.84 669.416 197.84C677.135 197.84 682.924 196.724 686.802 194.492C690.662 192.261 692.591 190.029 692.591 187.798C692.591 184.758 690.758 182.18 687.111 180.045C683.445 177.91 678.833 175.793 673.237 173.658C667.641 171.523 661.601 169.099 655.098 166.367C648.595 163.635 642.536 160.134 636.959 155.882C631.363 151.631 626.751 146.418 623.085 140.223C619.419 134.048 617.605 126.507 617.605 117.58C617.605 111.309 619.033 105.672 621.869 100.709C624.706 95.7456 628.623 91.5518 633.602 88.0891C638.58 84.6455 644.466 82.01 651.277 80.1824C658.089 78.3548 665.46 77.4507 673.391 77.4507H677.656C675.417 67.7164 675.572 58.4439 678.119 49.6331C680.666 40.8222 684.873 33.0695 690.777 26.3748C696.663 19.6801 703.88 14.3705 712.428 10.4268C720.957 6.48308 729.911 4.5016 739.25 4.5016C755.112 4.5016 767.404 9.42643 776.145 19.2376C784.887 29.068 789.248 42.4959 789.248 59.5212V79.2782H809.683V93.264H789.228V184.758C789.228 190.029 790.193 193.627 792.123 195.55C794.052 197.474 796.233 198.436 798.684 198.436C800.304 198.436 801.732 198.128 802.948 197.532C804.164 196.936 805.186 196.32 805.997 195.704C807.02 194.896 807.927 193.992 808.737 192.973L813.31 198.436C811.477 201.072 809.239 203.303 806.595 205.131C804.357 206.958 801.559 208.574 798.22 209.998C794.863 211.421 790.849 212.133 786.179 212.133C780.487 212.133 775.045 211.421 769.874 209.998C764.683 208.574 760.11 206.4 756.154 203.457C752.198 200.514 748.995 196.762 746.544 192.203C744.113 187.644 742.781 182.334 742.588 176.255V93.3217H722.153V79.336H727.942C732.207 79.336 736.182 78.7203 739.829 77.5084C743.495 76.2964 746.95 74.7766 750.191 72.9491C750.597 72.5451 751.098 72.1796 751.716 71.891C752.333 71.5832 752.835 71.2369 753.24 70.8329C753.433 70.6405 753.645 70.5251 753.858 70.5251C758.933 66.2736 762.503 61.0602 764.529 54.8657C766.555 48.6904 766.96 42.669 765.744 36.7823C764.529 30.9149 761.634 25.8938 757.061 21.7385C752.488 17.5832 746.236 15.5055 738.305 15.5055C730.374 15.5055 722.964 17.891 716.056 22.6427C709.148 27.4136 703.957 33.3773 700.503 40.5721C697.049 47.767 695.929 55.7314 697.145 64.4268C698.361 73.1414 703.243 81.4521 711.772 89.3587C714.821 92.3983 717.001 95.534 718.333 98.7852C719.645 102.036 720.205 105.018 720.012 107.75C719.799 110.482 718.892 112.713 717.271 114.445C715.651 116.176 713.509 117.022 710.865 117.022C706.601 117.022 703.243 116.311 700.812 114.887C698.38 113.463 696.335 111.655 694.714 109.424C691.047 104.152 687.4 100.363 683.734 98.0349C680.068 95.7072 674.78 94.5337 667.872 94.5337C660.559 94.5337 655.619 95.8611 653.091 98.4774C650.544 101.113 649.29 103.441 649.29 105.461C649.29 109.116 651.277 112.29 655.233 115.041C659.189 117.773 664.167 120.408 670.169 122.948C676.17 125.487 682.673 128.123 689.677 130.854C696.682 133.586 703.185 136.837 709.186 140.589C715.187 144.34 720.166 148.899 724.122 154.266C728.078 159.634 730.065 166.078 730.065 173.562C730.065 179.237 729.042 184.508 727.016 189.375C724.99 194.242 721.671 198.494 717.098 202.149C712.525 205.804 706.485 208.69 698.959 210.806C691.433 212.941 682.19 213.999 671.211 213.999C661.447 213.999 653.168 212.98 646.357 210.96C639.545 208.94 634.103 206.4 630.051 203.361C625.98 200.321 623.085 196.974 621.368 193.338C619.631 189.683 618.821 186.355 618.936 183.315C619.033 180.276 619.959 177.736 621.676 175.716C623.413 173.658 625.709 172.638 628.565 172.638Z" fill="#7B9933"/>
<path d="M931 175.389C927.334 182.488 922.471 188.875 916.373 194.531C911.086 199.186 904.178 203.553 895.649 207.593C887.12 211.652 876.449 213.672 863.636 213.672C848.584 213.672 835.984 210.383 825.834 203.784C815.665 197.205 808.004 188.952 802.813 179.006C797.603 169.099 795.017 158.306 795.017 146.648C795.017 134.99 797.757 124.217 803.257 114.271C808.737 104.345 816.977 96.0919 827.956 89.4934C838.936 82.9142 852.849 79.6053 869.733 79.6053C877.664 79.6053 884.978 80.4133 891.693 82.0292C898.408 83.6452 904.197 85.9345 909.079 88.8778C913.961 91.8212 917.724 95.3609 920.368 99.5162C923.011 103.672 924.323 108.289 924.323 113.348C924.323 120.043 921.834 126.218 916.856 131.893C911.877 137.568 905.625 142.628 898.099 147.091C890.574 151.554 882.353 155.305 873.4 158.345C864.446 161.384 856.014 163.616 848.102 165.04C850.533 170.926 854.103 175.678 858.773 179.333C863.443 182.988 869.444 184.797 876.757 184.797C884.071 184.797 890.67 184.027 896.575 182.507C902.46 180.988 907.555 179.314 911.819 177.486C916.489 175.255 920.754 172.831 924.632 170.195L931 175.389ZM874.905 96.0534C869.212 96.0534 864.234 97.8233 859.969 101.363C855.705 104.903 852.289 109.462 849.762 115.041C847.214 120.62 845.497 126.737 844.571 133.432C843.664 140.127 843.702 146.706 844.725 153.189C852.656 150.15 859.757 145.436 866.067 139.05C872.358 132.663 877.085 126.276 880.25 119.908C883.395 113.521 884.669 107.962 884.052 103.191C883.434 98.4389 880.385 96.0534 874.905 96.0534Z" fill="#7B9933"/>
<path d="M592.5 57.155C582.485 65.9081 572.374 57.6359 572.374 57.6359C572.374 57.6359 572.779 56.7317 574.207 56.5778C574.207 56.5778 570 54.404 569.364 52.3071C569.364 52.3071 570.444 51.4606 571.563 51.6723C571.563 51.6723 566.816 48.1325 566.662 45.8817C566.662 45.8817 568.032 45.1507 569.19 45.42C569.19 45.42 566.045 42.5729 566.16 40.3028C566.16 40.3028 567.743 40.1104 568.65 40.4182C568.65 40.4182 563.594 35.3972 566.45 27.2597C566.45 27.2597 574.13 26.5864 578.529 31.819C578.529 31.819 578.279 30.3954 578.78 29.4913C578.78 29.4913 582.119 30.684 583.373 32.4346C583.373 32.4346 583.527 30.7417 584.26 30.2031C584.26 30.2031 587.908 32.5885 589.123 35.0125C589.123 35.0125 589.721 33.4927 590.513 33.2426C590.513 33.2426 593.021 36.0898 593.426 38.6484C593.426 38.6484 594.082 37.5134 594.951 37.1479C594.893 37.1286 603.866 47.2284 592.5 57.155Z" fill="#7B9933"/>
<path d="M568.611 40.4183C567.704 40.1105 566.122 40.3028 566.122 40.3028C566.025 42.5921 569.151 45.42 569.151 45.42C567.994 45.1507 566.623 45.8817 566.623 45.8817C566.759 48.1325 571.525 51.6723 571.525 51.6723C570.406 51.4606 569.325 52.3071 569.325 52.3071C569.962 54.404 574.168 56.5779 574.168 56.5779C572.74 56.7318 572.335 57.6359 572.335 57.6359C572.335 57.6359 582.447 65.9081 592.461 57.155C592.693 56.9434 592.925 56.751 593.137 56.5394C579.224 45.5547 566.373 27.2597 566.373 27.2597C563.555 35.3972 568.611 40.4183 568.611 40.4183Z" fill="#4E712E"/>
<path d="M596.205 58.8286C596.089 58.9056 595.916 58.9248 595.781 58.8286C580.98 48.2864 568.418 30.3954 568.302 30.2223C568.186 30.0492 568.225 29.8375 568.399 29.7221C568.572 29.6067 568.785 29.6452 568.9 29.8183C569.016 29.9914 581.52 47.7862 596.205 58.2515C596.379 58.3669 596.417 58.5978 596.282 58.7517C596.263 58.7709 596.224 58.8094 596.205 58.8286Z" fill="#AFCB6B"/>
<path d="M573.898 37.3979C573.84 37.4364 573.744 37.4749 573.667 37.4556C571.293 37.2825 568.148 35.301 568.013 35.2048C567.839 35.0894 567.8 34.8778 567.897 34.7047C568.013 34.5315 568.225 34.4931 568.399 34.5892C568.437 34.6085 571.255 36.3783 573.416 36.6861C573.609 35.9166 574.072 33.762 573.84 31.5882C573.821 31.3958 573.956 31.2034 574.168 31.1842C574.361 31.1649 574.554 31.2996 574.574 31.5112C574.882 34.3392 574.072 37.0709 574.053 37.1863C574.014 37.2825 573.956 37.3595 573.898 37.3979Z" fill="#AFCB6B"/>
<path d="M580.285 44.4197C580.227 44.4581 580.189 44.4774 580.112 44.4774C576.542 44.8814 570.386 43.3231 570.135 43.2654C569.942 43.2077 569.827 43.0153 569.865 42.8229C569.923 42.6306 570.116 42.5151 570.309 42.5536C570.367 42.5729 576.291 44.0734 579.764 43.7848C579.977 42.6498 580.691 38.0328 579.822 33.7813C579.784 33.5889 579.899 33.3965 580.112 33.358C580.305 33.3196 580.498 33.4542 580.536 33.6466C581.578 38.6676 580.478 43.9964 580.42 44.2081C580.401 44.285 580.343 44.362 580.285 44.4197Z" fill="#AFCB6B"/>
<path d="M586.595 50.922C586.557 50.9605 586.499 50.9797 586.441 50.9797C581.887 51.6915 574.072 50.7681 573.744 50.7296C573.551 50.7104 573.397 50.518 573.416 50.3256C573.435 50.1332 573.628 49.9793 573.821 49.9986C573.898 49.9986 581.655 50.922 586.152 50.2871C586.615 49.4215 588.872 44.8237 587.869 38.2444C587.83 38.052 587.985 37.8596 588.178 37.8212C588.371 37.7827 588.564 37.9366 588.602 38.129C589.741 45.6894 586.827 50.5949 586.711 50.8066C586.673 50.8643 586.634 50.9027 586.595 50.922Z" fill="#AFCB6B"/>
<path d="M592.037 55.5967C592.018 55.616 591.998 55.616 591.998 55.616C587.097 58.0399 578.838 57.6936 578.491 57.6744C578.298 57.6744 578.124 57.5013 578.143 57.2896C578.163 57.0973 578.317 56.9241 578.529 56.9434C578.607 56.9434 586.885 57.3089 591.612 54.9811C592.018 54.5002 595.124 50.4988 594.545 43.2462C594.526 43.0538 594.681 42.8614 594.874 42.8614C595.067 42.8422 595.26 42.9961 595.26 43.1885C595.916 51.249 592.249 55.3466 592.095 55.5198C592.076 55.5583 592.056 55.5775 592.037 55.5967Z" fill="#AFCB6B"/>
<path d="M612.53 73.0837C612.53 73.0837 602.341 78.5087 595.472 79.99L598.193 211.768L617.566 211.652L617.528 205.573C617.528 205.573 605.969 196.897 605.969 187.278V102.633C605.969 101.536 605.699 94.0912 605.969 93.0139C606.915 89.301 609.828 83.3951 615.617 78.8358L612.53 73.0837Z" fill="#4E712E"/>
<path d="M213.014 82.2793H282.521V88.3584C280.494 89.1664 278.565 90.4938 276.732 92.3021C275.304 93.9181 274.03 96.1111 272.911 98.8429C271.792 101.575 271.136 105.268 270.923 109.943V164.039C270.923 173.773 272.39 181.064 275.342 185.932C278.295 190.799 281.787 193.223 285.859 193.223C288.908 193.223 291.648 192.068 294.098 189.721C296.53 187.394 298.672 184.508 300.505 181.064C302.338 177.621 303.805 173.716 304.924 169.368C306.043 165.02 306.796 160.903 307.201 157.056V109.924C307.201 105.268 306.583 101.575 305.368 98.8236C304.152 96.0919 302.724 93.9181 301.103 92.2829C299.482 90.4553 297.553 89.1471 295.314 88.3391V82.2601H365.129C365.129 82.2601 360.961 90.4745 359.34 92.2829C357.912 93.8988 356.6 96.0919 355.384 98.8236C354.169 101.555 353.551 105.249 353.551 109.924V187.432C353.551 193.511 354.169 197.724 355.384 200.052C356.6 202.38 358.433 203.553 360.864 203.553C362.891 203.553 364.724 202.938 366.345 201.726C367.155 201.322 367.869 200.822 368.487 200.206L374.391 204.592C373.369 206.208 370.32 208.824 368.487 210.229C366.866 211.248 364.569 212.249 361.636 213.268C358.684 214.288 354.883 214.788 350.213 214.788C341.259 214.788 333.135 213.018 325.822 209.459C318.509 205.919 313.221 200.398 309.96 192.896C309.555 194.108 308.687 195.935 307.374 198.359C306.043 200.783 303.92 203.226 300.968 205.65C298.016 208.074 294.118 210.171 289.236 211.883C284.354 213.615 278.256 214.461 270.943 214.461C261.584 214.461 253.865 212.691 247.767 209.151C241.67 205.612 236.942 201.149 233.585 195.781C230.227 190.414 227.892 184.489 226.58 178.006C225.248 171.523 224.592 165.444 224.592 159.768V109.924C224.592 105.268 224.033 101.575 222.914 98.8236C221.794 96.0919 220.424 93.9181 218.803 92.2829C217.182 90.4745 213.014 82.2793 213.014 82.2793Z" fill="#7B9933"/>
</g>
<defs>
<clipPath id="clip0_57_258">
<rect width="931" height="216" fill="white"/>
</clipPath>
</defs>
</svg>
