<svg width="20" height="20" viewBox="0 0 20 20" fill="none" xmlns="http://www.w3.org/2000/svg">
<g clip-path="url(#clip0_397_2834)">
<path d="M10.4642 0.800781C10.4642 0.800781 9.95793 1.05914 9.45219 1.43961C9.19934 1.62984 8.9434 1.85055 8.74106 2.10473C8.53871 2.35887 8.37379 2.66066 8.39887 3.01355C8.42676 3.40574 8.69262 3.69781 8.97621 3.87293C9.25977 4.04801 9.58176 4.15395 9.885 4.25844C10.1883 4.36293 10.4729 4.46598 10.6534 4.5775C10.834 4.68898 10.8898 4.76121 10.8989 4.88855C10.8999 4.90301 10.8825 4.9802 10.7968 5.08789C10.7111 5.19559 10.5731 5.31953 10.4288 5.42812C10.1402 5.6452 9.83918 5.80078 9.83918 5.80078L10.1599 6.42641C10.1599 6.42641 10.5046 6.25086 10.8515 5.98992C11.025 5.85945 11.2021 5.70762 11.3469 5.52586C11.4916 5.34402 11.62 5.11805 11.6002 4.83863C11.5723 4.44645 11.3064 4.15437 11.0229 3.97926C10.7393 3.80414 10.4173 3.69824 10.1141 3.59375C9.81078 3.48926 9.52617 3.38621 9.34562 3.27469C9.16504 3.16316 9.10922 3.09098 9.1002 2.96363C9.09395 2.87566 9.14773 2.7227 9.29106 2.54266C9.43441 2.36258 9.65113 2.16965 9.87488 2.00133C10.3223 1.66473 10.7849 1.42641 10.7849 1.42641L10.4642 0.800781ZM5.46418 2.67578C5.46418 2.67578 4.95793 2.93414 4.45219 3.31461C4.19934 3.50484 3.9434 3.72555 3.74105 3.97973C3.53871 4.23387 3.37379 4.53566 3.39887 4.88855C3.42676 5.28074 3.69262 5.57281 3.97621 5.74793C4.25977 5.92301 4.58176 6.02895 4.885 6.13344C5.18828 6.23793 5.47289 6.34098 5.65344 6.4525C5.83402 6.56398 5.88984 6.63621 5.89887 6.76355C5.89992 6.77801 5.88254 6.8552 5.7968 6.96289C5.71106 7.07059 5.57313 7.19453 5.42883 7.30313C5.14023 7.5202 4.83918 7.67578 4.83918 7.67578L5.15988 8.30141C5.15988 8.30141 5.50465 8.12586 5.85152 7.86492C6.02496 7.73445 6.20215 7.58262 6.34688 7.40082C6.4916 7.21902 6.62004 6.99301 6.6002 6.71363C6.57231 6.32145 6.30645 6.02938 6.02285 5.85426C5.73926 5.67914 5.4173 5.57324 5.11406 5.46875C4.81078 5.36426 4.52617 5.26121 4.34562 5.14969C4.16504 5.03816 4.10922 4.96598 4.1002 4.83863C4.09395 4.75066 4.14773 4.5977 4.29105 4.41766C4.43441 4.23758 4.65113 4.04465 4.87488 3.87633C5.3223 3.53973 5.78488 3.30141 5.78488 3.30141L5.46418 2.67578ZM15.4642 2.67578C15.4642 2.67578 14.9579 2.93414 14.4522 3.31461C14.1993 3.50484 13.9434 3.72555 13.7411 3.97973C13.5387 4.23387 13.3738 4.53566 13.3989 4.88855C13.4268 5.28074 13.6926 5.57281 13.9762 5.74793C14.2598 5.92301 14.5818 6.02895 14.885 6.13344C15.1883 6.23793 15.4729 6.34098 15.6534 6.4525C15.834 6.56398 15.8898 6.63621 15.8989 6.76355C15.8999 6.77801 15.8825 6.8552 15.7968 6.96289C15.7111 7.07059 15.5731 7.19453 15.4288 7.30313C15.1402 7.5202 14.8392 7.67578 14.8392 7.67578L15.1599 8.30141C15.1599 8.30141 15.5046 8.12586 15.8515 7.86492C16.025 7.73445 16.2021 7.58262 16.3469 7.40082C16.4916 7.21902 16.62 6.99301 16.6002 6.71363C16.5723 6.32145 16.3064 6.02938 16.0229 5.85426C15.7393 5.67914 15.4173 5.57324 15.1141 5.46875C14.8108 5.36426 14.5262 5.26121 14.3456 5.14969C14.165 5.03816 14.1092 4.96598 14.1002 4.83863C14.0939 4.75066 14.1477 4.5977 14.2911 4.41766C14.4344 4.23758 14.6511 4.04465 14.8749 3.87633C15.3223 3.53973 15.7849 3.30141 15.7849 3.30141L15.4642 2.67578ZM9.99953 7.32445C9.49172 7.32445 9.14828 7.55547 8.88578 7.94922C8.77711 8.11223 8.68941 8.30469 8.62348 8.51426C9.06566 8.45148 9.52465 8.41836 9.99953 8.41836C10.4744 8.41836 10.9334 8.45148 11.3756 8.51426C11.3096 8.30469 11.222 8.11223 11.1133 7.94922C10.8508 7.55547 10.5073 7.32445 9.99953 7.32445ZM9.99953 9.12133C5.33441 9.12133 2.43109 12.4822 2.24406 15.9184H17.755C17.5679 12.4822 14.6646 9.12129 9.99953 9.12129V9.12133ZM0.873086 16.0994L0.375977 16.5965C1.08379 17.3044 1.87453 17.3245 2.49953 17.3245H17.4995C18.1245 17.3245 18.9152 17.3044 19.6231 16.5965L19.126 16.0994C18.5838 16.6416 18.1245 16.6215 17.4995 16.6215H2.49953C1.87453 16.6215 1.41523 16.6416 0.873086 16.0994ZM4.40633 18.0276L5.18766 19.1996H14.8114L15.5927 18.0276H4.40633Z" fill="#2F3B10"/>
</g>
<defs>
<clipPath id="clip0_397_2834">
<rect width="20" height="20" fill="white"/>
</clipPath>
</defs>
</svg>
