<svg width="28" height="33" viewBox="0 0 28 33" fill="none" xmlns="http://www.w3.org/2000/svg">
<path d="M10.8833 16H8.7583V13.875H10.8833V16ZM19.3833 16H17.2583V13.875H19.3833V16ZM27.8833 13.875V18.125H25.7583V23.4375C25.7583 23.8802 25.6753 24.2952 25.5093 24.6826C25.3433 25.07 25.1164 25.4075 24.8286 25.6953C24.5409 25.9831 24.2033 26.2099 23.8159 26.376C23.4285 26.542 23.0135 26.625 22.5708 26.625H18.188L10.8833 32.8672V26.625H5.5708C5.12809 26.625 4.71305 26.542 4.32568 26.376C3.93831 26.2099 3.60075 25.9831 3.31299 25.6953C3.02523 25.4075 2.79834 25.07 2.63232 24.6826C2.46631 24.2952 2.3833 23.8802 2.3833 23.4375V18.125H0.258301V13.875H2.3833V10.6875C2.3833 10.2448 2.46631 9.82973 2.63232 9.44236C2.79834 9.05499 3.02523 8.71743 3.31299 8.42967C3.60075 8.14191 3.93831 7.91502 4.32568 7.749C4.71305 7.58299 5.12809 7.49998 5.5708 7.49998H13.0083V4.03025C12.6873 3.8421 12.4328 3.58201 12.2446 3.24998C12.0565 2.91795 11.9569 2.56378 11.9458 2.18748C11.9458 1.88865 12.0011 1.61196 12.1118 1.3574C12.2225 1.10284 12.3719 0.88149 12.5601 0.693339C12.7482 0.505188 12.9751 0.35024 13.2407 0.228495C13.5063 0.10675 13.783 0.0514119 14.0708 0.0624797C14.3696 0.0624797 14.6463 0.117818 14.9009 0.228495C15.1554 0.339172 15.3768 0.488586 15.5649 0.676737C15.7531 0.864888 15.908 1.09178 16.0298 1.3574C16.1515 1.62303 16.2069 1.89972 16.1958 2.18748C16.1958 2.56378 16.1017 2.91795 15.9136 3.24998C15.7254 3.58201 15.4653 3.8421 15.1333 4.03025V7.49998H22.5708C23.0135 7.49998 23.4285 7.58299 23.8159 7.749C24.2033 7.91502 24.5409 8.14191 24.8286 8.42967C25.1164 8.71743 25.3433 9.05499 25.5093 9.44236C25.6753 9.82973 25.7583 10.2448 25.7583 10.6875V13.875H27.8833ZM23.6333 10.6875C23.6333 10.3997 23.5282 10.1507 23.3179 9.94041C23.1076 9.73012 22.8586 9.62498 22.5708 9.62498H5.5708C5.28304 9.62498 5.03402 9.73012 4.82373 9.94041C4.61344 10.1507 4.5083 10.3997 4.5083 10.6875V23.4375C4.5083 23.7252 4.61344 23.9743 4.82373 24.1846C5.03402 24.3948 5.28304 24.5 5.5708 24.5H13.0083V28.2519L17.3911 24.5H22.5708C22.8586 24.5 23.1076 24.3948 23.3179 24.1846C23.5282 23.9743 23.6333 23.7252 23.6333 23.4375V10.6875ZM9.50537 18.3574C10.1141 18.9661 10.8114 19.431 11.5972 19.7519C12.383 20.0729 13.2075 20.2389 14.0708 20.25C14.9341 20.25 15.7586 20.0895 16.5444 19.7685C17.3302 19.4476 18.0275 18.9772 18.6362 18.3574L20.1304 19.8681C19.3224 20.6761 18.3983 21.2959 17.3579 21.7275C16.3175 22.1592 15.2218 22.375 14.0708 22.375C12.9308 22.375 11.8407 22.1592 10.8003 21.7275C9.75993 21.2959 8.83024 20.6761 8.01123 19.8681L9.50537 18.3574Z" fill="#6B994D"/>
</svg>
