<svg width="30" height="30" viewBox="0 0 30 30" fill="none" xmlns="http://www.w3.org/2000/svg">
<path fill-rule="evenodd" clip-rule="evenodd" d="M0 5C0 3.67392 0.526784 2.40215 1.46447 1.46447C2.40215 0.526784 3.67392 0 5 0H25C26.3261 0 27.5979 0.526784 28.5355 1.46447C29.4732 2.40215 30 3.67392 30 5V25C30 26.3261 29.4732 27.5979 28.5355 28.5355C27.5979 29.4732 26.3261 30 25 30H5C3.67392 30 2.40215 29.4732 1.46447 28.5355C0.526784 27.5979 0 26.3261 0 25V5ZM16.6667 8.33333C16.6667 7.89131 16.4911 7.46738 16.1785 7.15482C15.8659 6.84226 15.442 6.66667 15 6.66667C14.558 6.66667 14.134 6.84226 13.8215 7.15482C13.5089 7.46738 13.3333 7.89131 13.3333 8.33333V21.6667C13.3333 22.1087 13.5089 22.5326 13.8215 22.8452C14.134 23.1577 14.558 23.3333 15 23.3333C15.442 23.3333 15.8659 23.1577 16.1785 22.8452C16.4911 22.5326 16.6667 22.1087 16.6667 21.6667V8.33333ZM10 13.3333C10 12.8913 9.8244 12.4674 9.51184 12.1548C9.19928 11.8423 8.77536 11.6667 8.33333 11.6667C7.89131 11.6667 7.46738 11.8423 7.15482 12.1548C6.84226 12.4674 6.66667 12.8913 6.66667 13.3333V21.6667C6.66667 22.1087 6.84226 22.5326 7.15482 22.8452C7.46738 23.1577 7.89131 23.3333 8.33333 23.3333C8.77536 23.3333 9.19928 23.1577 9.51184 22.8452C9.8244 22.5326 10 22.1087 10 21.6667V13.3333ZM23.3333 18.3333C23.3333 17.8913 23.1577 17.4674 22.8452 17.1548C22.5326 16.8423 22.1087 16.6667 21.6667 16.6667C21.2246 16.6667 20.8007 16.8423 20.4882 17.1548C20.1756 17.4674 20 17.8913 20 18.3333V21.6667C20 22.1087 20.1756 22.5326 20.4882 22.8452C20.8007 23.1577 21.2246 23.3333 21.6667 23.3333C22.1087 23.3333 22.5326 23.1577 22.8452 22.8452C23.1577 22.5326 23.3333 22.1087 23.3333 21.6667V18.3333Z" fill="#6B994D"/>
</svg>
