<svg width="30" height="30" viewBox="0 0 30 30" fill="none" xmlns="http://www.w3.org/2000/svg">
<path fill-rule="evenodd" clip-rule="evenodd" d="M13.05 5.86071C14.6428 6.90372 15.8053 8.48697 16.3235 10.319C16.8416 12.1511 16.6806 14.1087 15.87 15.8314C17.3173 16.9458 19.0791 17.5757 20.9048 17.6314C22.7306 17.6872 24.5275 17.166 26.0401 16.1419C27.5527 15.1179 28.704 13.6431 29.3303 11.9273C29.9567 10.2114 30.0263 8.34176 29.5292 6.58409C29.0321 4.82641 27.9935 3.27016 26.5612 2.13654C25.129 1.00293 23.3758 0.349635 21.5509 0.26953C19.726 0.189425 17.9224 0.686585 16.3962 1.69034C14.8701 2.69409 13.6992 4.15336 13.05 5.86071ZM21.1736 8.145C21.9129 8.145 22.5129 8.745 22.5129 9.48429V13.3286C22.5129 13.6838 22.3718 14.0244 22.1206 14.2756C21.8694 14.5268 21.5288 14.6679 21.1736 14.6679C20.8184 14.6679 20.4777 14.5268 20.2266 14.2756C19.9754 14.0244 19.8343 13.6838 19.8343 13.3286V9.48429C19.8343 8.745 20.4343 8.145 21.1736 8.145ZM19.6029 4.75929C19.6029 5.76857 20.4386 6.21214 21.0279 6.27643L21.1779 6.285C21.7629 6.285 22.7507 5.85643 22.7507 4.75929C22.7507 3.74786 21.915 3.30429 21.3257 3.24L21.1757 3.23143C20.5907 3.23143 19.6029 3.66 19.6029 4.75929ZM8.71073 17.6979C9.40612 17.7119 10.0973 17.5871 10.7439 17.3308C11.3904 17.0744 11.9793 16.6916 12.4761 16.2048C12.9729 15.7179 13.3675 15.1369 13.637 14.4957C13.9064 13.8544 14.0451 13.1659 14.0451 12.4704C14.0451 11.7748 13.9064 11.0863 13.637 10.445C13.3675 9.80381 12.9729 9.22278 12.4761 8.73597C11.9793 8.24915 11.3904 7.86635 10.7439 7.60997C10.0973 7.35358 9.40612 7.22878 8.71073 7.24286C7.34263 7.27056 6.03992 7.83348 5.08218 8.81081C4.12444 9.78814 3.588 11.102 3.588 12.4704C3.588 13.8387 4.12444 15.1526 5.08218 16.1299C6.03992 17.1072 7.34263 17.6702 8.71073 17.6979ZM1.15129e-05 28.1507C-0.00354286 25.9633 0.816023 23.8546 2.29583 22.2437C3.77565 20.6328 5.80737 19.6376 7.98724 19.4559C10.1671 19.2743 12.3355 19.9194 14.0616 21.2631C15.7877 22.6068 16.945 24.5507 17.3036 26.7086H28.3543C28.7805 26.7086 29.1893 26.8779 29.4907 27.1793C29.7921 27.4807 29.9614 27.8895 29.9614 28.3157C29.9614 28.742 29.7921 29.1507 29.4907 29.4521C29.1893 29.7535 28.7805 29.9229 28.3543 29.9229H1.65001C1.24313 29.9228 0.851437 29.7683 0.553959 29.4907C0.256481 29.2131 0.0753647 28.833 0.0471544 28.4271C0.0171004 28.3381 0.00189749 28.2447 0.00215437 28.1507H1.15129e-05Z" fill="#6B994D"/>
</svg>
