<svg width="32" height="32" viewBox="0 0 32 32" fill="none" xmlns="http://www.w3.org/2000/svg">
<path fill-rule="evenodd" clip-rule="evenodd" d="M21.5001 16C21.5001 15.7348 21.3947 15.4804 21.2072 15.2929C21.0197 15.1054 20.7653 15 20.5001 15H5.86943L8.48409 12.76C8.5839 12.6745 8.66589 12.5703 8.7254 12.4531C8.78491 12.336 8.82077 12.2083 8.83092 12.0773C8.84107 11.9463 8.82532 11.8146 8.78457 11.6897C8.74382 11.5648 8.67887 11.4491 8.59343 11.3493C8.50798 11.2495 8.40371 11.1675 8.28658 11.108C8.16944 11.0485 8.04173 11.0127 7.91074 11.0025C7.77974 10.9924 7.64803 11.0081 7.52313 11.0488C7.39822 11.0896 7.28256 11.1545 7.18276 11.24L2.51609 15.24C2.40631 15.3339 2.31817 15.4504 2.25774 15.5816C2.19731 15.7128 2.16602 15.8555 2.16602 16C2.16602 16.1444 2.19731 16.2872 2.25774 16.4184C2.31817 16.5496 2.40631 16.6661 2.51609 16.76L7.18276 20.76C7.38432 20.9326 7.64618 21.018 7.91074 20.9975C8.17529 20.977 8.42086 20.8522 8.59343 20.6507C8.76599 20.4491 8.85142 20.1872 8.83092 19.9227C8.81041 19.6581 8.68566 19.4126 8.48409 19.24L5.87076 17H20.5001C20.7653 17 21.0197 16.8946 21.2072 16.7071C21.3947 16.5196 21.5001 16.2652 21.5001 16Z" fill="#6B994D"/>
<path d="M12.5 10.6667C12.5 11.6027 12.5 12.0707 12.7253 12.408C12.8224 12.553 12.947 12.6776 13.092 12.7747C13.4293 13 13.8973 13 14.8333 13H20.5C21.2956 13 22.0587 13.3161 22.6213 13.8787C23.1839 14.4413 23.5 15.2043 23.5 16C23.5 16.7956 23.1839 17.5587 22.6213 18.1213C22.0587 18.6839 21.2956 19 20.5 19H14.8333C13.8973 19 13.4293 19 13.092 19.224C12.9468 19.3214 12.8222 19.4465 12.7253 19.592C12.5 19.9293 12.5 20.3973 12.5 21.3333C12.5 25.104 12.5 26.9907 13.672 28.1613C14.8427 29.3333 16.728 29.3333 20.4987 29.3333H21.832C25.6053 29.3333 27.4893 29.3333 28.6613 28.1613C29.8333 26.9907 29.8333 25.104 29.8333 21.3333V10.6667C29.8333 6.89599 29.8333 5.00932 28.6613 3.83866C27.4893 2.66799 25.604 2.66666 21.8333 2.66666H20.5C16.728 2.66666 14.8427 2.66666 13.672 3.83866C12.5 5.00932 12.5 6.89599 12.5 10.6667Z" fill="#6B994D"/>
</svg>
