<svg width="30" height="30" viewBox="0 0 30 30" fill="none" xmlns="http://www.w3.org/2000/svg">
<path d="M19.815 9.99095e-05H10.125C7.4409 0.00406753 4.86787 1.07208 2.96993 2.97002C1.07198 4.86796 0.00396763 7.44098 0 10.1251V19.875C0.00396763 22.5591 1.07198 25.1321 2.96993 27.0301C4.86787 28.928 7.4409 29.996 10.125 30H19.875C22.5591 29.996 25.1321 28.928 27.0301 27.0301C28.928 25.1321 29.996 22.5591 30 19.875V10.1251C29.998 8.79093 29.7328 7.4703 29.2195 6.23886C28.7063 5.00741 27.955 3.88936 27.0089 2.94878C26.0627 2.00819 24.9402 1.26357 23.7058 0.757579C22.4713 0.251588 21.1491 -0.00582224 19.815 9.99095e-05ZM23.37 11.1301L19.695 16.695C19.3101 17.263 18.7202 17.6599 18.0491 17.8025C17.3779 17.9451 16.6776 17.8224 16.095 17.46L12.51 15.195C12.4701 15.1763 12.4266 15.1666 12.3825 15.1666C12.3384 15.1666 12.2949 15.1763 12.255 15.195C12.1603 15.2065 12.0739 15.255 12.015 15.33L8.34 20.19C8.16308 20.4079 7.91114 20.5517 7.63362 20.5933C7.3561 20.635 7.07304 20.5714 6.84 20.415C6.62217 20.2381 6.47833 19.9862 6.4367 19.7087C6.39507 19.4311 6.45866 19.1481 6.615 18.915L10.29 14.0251C10.6856 13.4989 11.2644 13.1406 11.9117 13.0211C12.5591 12.9017 13.2277 13.0298 13.785 13.3801L17.37 15.645C17.4142 15.6674 17.463 15.6791 17.5125 15.6791C17.562 15.6791 17.6108 15.6674 17.655 15.645C17.7007 15.6365 17.7441 15.6188 17.7828 15.593C17.8215 15.5672 17.8545 15.5339 17.88 15.495L21.57 9.93007C21.7351 9.68143 21.9922 9.50856 22.2848 9.44948C22.5773 9.39041 22.8814 9.44997 23.13 9.61507C23.3786 9.78016 23.5515 10.0373 23.6106 10.3298C23.6697 10.6224 23.6101 10.9264 23.445 11.1751L23.37 11.1301Z" fill="#6B994D"/>
</svg>
