<svg width="30" height="30" viewBox="0 0 30 30" fill="none" xmlns="http://www.w3.org/2000/svg">
<path d="M15.8208 -1C15.8208 -1 14.9265 -0.550651 14.0331 0.111076C13.5865 0.44194 13.1343 0.825795 12.7769 1.26788C12.4195 1.70989 12.1281 2.23478 12.1724 2.84855C12.2217 3.53065 12.6913 4.03864 13.1923 4.34321C13.6932 4.64771 14.262 4.83196 14.7977 5.0137C15.3334 5.19544 15.8362 5.37466 16.1551 5.56862C16.4741 5.76252 16.5727 5.88814 16.5887 6.10962C16.5905 6.13476 16.5598 6.26901 16.4084 6.45632C16.2569 6.64362 16.0133 6.8592 15.7584 7.04807C15.2486 7.4256 14.7167 7.69621 14.7167 7.69621L15.2833 8.78432C15.2833 8.78432 15.8923 8.479 16.505 8.02517C16.8114 7.79825 17.1244 7.53417 17.3801 7.21805C17.6357 6.90179 17.8626 6.50877 17.8276 6.0228C17.7783 5.34069 17.3087 4.83271 16.8077 4.52814C16.3067 4.22357 15.738 4.03938 15.2023 3.85765C14.6666 3.67591 14.1638 3.49669 13.8449 3.30272C13.5259 3.10875 13.4273 2.9832 13.4113 2.76172C13.4003 2.60872 13.4953 2.34267 13.7485 2.02954C14.0017 1.71634 14.3846 1.38079 14.7798 1.08804C15.5702 0.502609 16.3873 0.0881128 16.3873 0.0881128L15.8208 -1ZM6.98831 2.26108C6.98831 2.26108 6.09402 2.71043 5.20062 3.37215C4.75396 3.70302 4.30185 4.08687 3.94441 4.52895C3.58697 4.97096 3.29563 5.49586 3.33993 6.10962C3.3892 6.79173 3.85884 7.29971 4.35981 7.60428C4.86071 7.90879 5.42951 8.09304 5.96519 8.27478C6.50093 8.45651 7.00369 8.63574 7.32263 8.8297C7.64163 9.0236 7.74024 9.14922 7.75618 9.3707C7.75804 9.39584 7.72734 9.53009 7.57587 9.71739C7.42441 9.9047 7.18076 10.1203 6.92586 10.3091C6.41606 10.6867 5.88424 10.9573 5.88424 10.9573L6.45076 12.0454C6.45076 12.0454 7.05979 11.7401 7.67255 11.2862C7.97893 11.0593 8.29193 10.7952 8.54759 10.4791C8.80325 10.1629 9.03013 9.76978 8.99508 9.28388C8.94581 8.60177 8.47617 8.09379 7.9752 7.78922C7.47423 7.48464 6.9055 7.30046 6.36982 7.11872C5.83408 6.93699 5.33132 6.75776 5.01238 6.5638C4.69338 6.36983 4.59477 6.24428 4.57883 6.0228C4.56779 5.8698 4.66281 5.60375 4.91598 5.29062C5.16923 4.97742 5.55206 4.64187 5.94731 4.34912C6.73768 3.76369 7.55483 3.34919 7.55483 3.34919L6.98831 2.26108ZM24.6533 2.26108C24.6533 2.26108 23.759 2.71043 22.8656 3.37215C22.419 3.70302 21.9668 4.08687 21.6094 4.52895C21.252 4.97096 20.9606 5.49586 21.0049 6.10962C21.0542 6.79173 21.5238 7.29971 22.0248 7.60428C22.5257 7.90879 23.0945 8.09304 23.6302 8.27478C24.1659 8.45651 24.6687 8.63574 24.9876 8.8297C25.3066 9.0236 25.4052 9.14922 25.4212 9.3707C25.423 9.39584 25.3923 9.53009 25.2409 9.71739C25.0894 9.9047 24.8457 10.1203 24.5908 10.3091C24.081 10.6867 23.5492 10.9573 23.5492 10.9573L24.1158 12.0454C24.1158 12.0454 24.7248 11.7401 25.3375 11.2862C25.6439 11.0593 25.9569 10.7952 26.2126 10.4791C26.4682 10.1629 26.6951 9.76978 26.6601 9.28388C26.6108 8.60177 26.1412 8.09379 25.6402 7.78922C25.1392 7.48464 24.5705 7.30046 24.0348 7.11872C23.4991 6.93699 22.9963 6.75776 22.6774 6.5638C22.3584 6.36983 22.2598 6.24428 22.2438 6.0228C22.2328 5.8698 22.3278 5.60375 22.581 5.29062C22.8342 4.97742 23.217 4.64187 23.6123 4.34912C24.4027 3.76369 25.2198 3.34919 25.2198 3.34919L24.6533 2.26108ZM15 10.3462C14.1029 10.3462 13.4963 10.748 13.0326 11.4329C12.8406 11.7164 12.6857 12.0511 12.5692 12.4156C13.3503 12.3064 14.1611 12.2488 15 12.2488C15.8389 12.2488 16.6496 12.3064 17.4308 12.4156C17.3143 12.0511 17.1594 11.7164 16.9674 11.4329C16.5037 10.748 15.8971 10.3462 15 10.3462ZM15 13.4714C6.75908 13.4714 1.63036 19.3169 1.29997 25.2931H28.7C28.3696 19.3169 23.2409 13.4714 15 13.4714V13.4714ZM-1.12186 25.608L-2 26.4726C-0.74965 27.7037 0.647195 27.7387 1.75126 27.7387H28.2487C29.3528 27.7387 30.7496 27.7037 32 26.4726L31.1219 25.608C30.1641 26.5509 29.3528 26.516 28.2487 26.516H1.75126C0.647195 26.516 -0.164152 26.5509 -1.12186 25.608ZM5.11961 28.9616L6.49983 31H23.5002L24.8804 28.9616H5.11961Z" fill="#6B994D"/>
</svg>
