<svg width="328" height="328" viewBox="0 0 328 328" fill="none" xmlns="http://www.w3.org/2000/svg">
<path fill-rule="evenodd" clip-rule="evenodd" d="M57.0173 43.3507C41 59.3544 41 85.1297 41 136.667V191.333C41 242.87 41 268.646 57.0173 284.649C73.0347 300.653 98.7963 300.667 150.333 300.667H177.667C229.204 300.667 254.979 300.667 270.983 284.649C286.986 268.632 287 242.87 287 191.333V136.667C287 85.1297 287 59.3544 270.983 43.3507C254.965 27.347 229.204 27.3334 177.667 27.3334H150.333C98.7963 27.3334 73.021 27.3334 57.0173 43.3507ZM174.25 82C174.25 79.2816 173.17 76.6744 171.248 74.7522C169.326 72.8299 166.718 71.75 164 71.75C161.282 71.75 158.674 72.8299 156.752 74.7522C154.83 76.6744 153.75 79.2816 153.75 82V99.0834H136.667C133.948 99.0834 131.341 100.163 129.419 102.086C127.497 104.008 126.417 106.615 126.417 109.333C126.417 112.052 127.497 114.659 129.419 116.581C131.341 118.503 133.948 119.583 136.667 119.583H153.75V136.667C153.75 139.385 154.83 141.992 156.752 143.915C158.674 145.837 161.282 146.917 164 146.917C166.718 146.917 169.326 145.837 171.248 143.915C173.17 141.992 174.25 139.385 174.25 136.667V119.583H191.333C194.052 119.583 196.659 118.503 198.581 116.581C200.503 114.659 201.583 112.052 201.583 109.333C201.583 106.615 200.503 104.008 198.581 102.086C196.659 100.163 194.052 99.0834 191.333 99.0834H174.25V82ZM109.333 181.083C106.615 181.083 104.008 182.163 102.085 184.086C100.163 186.008 99.0833 188.615 99.0833 191.333C99.0833 194.052 100.163 196.659 102.085 198.581C104.008 200.503 106.615 201.583 109.333 201.583H218.667C221.385 201.583 223.992 200.503 225.915 198.581C227.837 196.659 228.917 194.052 228.917 191.333C228.917 188.615 227.837 186.008 225.915 184.086C223.992 182.163 221.385 181.083 218.667 181.083H109.333ZM123 235.75C120.282 235.75 117.674 236.83 115.752 238.752C113.83 240.674 112.75 243.282 112.75 246C112.75 248.719 113.83 251.326 115.752 253.248C117.674 255.17 120.282 256.25 123 256.25H205C207.718 256.25 210.326 255.17 212.248 253.248C214.17 251.326 215.25 248.719 215.25 246C215.25 243.282 214.17 240.674 212.248 238.752C210.326 236.83 207.718 235.75 205 235.75H123Z" fill="#2F3B10"/>
</svg>
