<svg width="28" height="26" viewBox="0 0 28 26" fill="none" xmlns="http://www.w3.org/2000/svg">
<rect width="28" height="26" rx="8" fill="#EAFFB8"/>
<path d="M12.5 12.9998H11.25V11.7498H12.5V12.9998ZM17.5 12.9998H16.25V11.7498H17.5V12.9998ZM22.5 11.7498V14.2498H21.25V17.3748C21.25 17.6353 21.2012 17.8794 21.1035 18.1073C21.0059 18.3351 20.8724 18.5337 20.7031 18.703C20.5339 18.8722 20.3353 19.0057 20.1074 19.1034C19.8796 19.201 19.6354 19.2498 19.375 19.2498H16.7969L12.5 22.9217V19.2498H9.375C9.11458 19.2498 8.87044 19.201 8.64258 19.1034C8.41471 19.0057 8.21615 18.8722 8.04688 18.703C7.8776 18.5337 7.74414 18.3351 7.64648 18.1073C7.54883 17.8794 7.5 17.6353 7.5 17.3748V14.2498H6.25V11.7498H7.5V9.87484C7.5 9.61442 7.54883 9.37028 7.64648 9.14241C7.74414 8.91455 7.8776 8.71598 8.04688 8.54671C8.21615 8.37744 8.41471 8.24398 8.64258 8.14632C8.87044 8.04867 9.11458 7.99984 9.375 7.99984H13.75V5.95882C13.5612 5.84814 13.4115 5.69515 13.3008 5.49984C13.1901 5.30452 13.1315 5.09619 13.125 4.87484C13.125 4.69906 13.1576 4.5363 13.2227 4.38656C13.2878 4.23682 13.3757 4.10661 13.4863 3.99593C13.597 3.88525 13.7305 3.79411 13.8867 3.72249C14.043 3.65088 14.2057 3.61833 14.375 3.62484C14.5508 3.62484 14.7135 3.65739 14.8633 3.72249C15.013 3.7876 15.1432 3.87549 15.2539 3.98617C15.3646 4.09684 15.4557 4.23031 15.5273 4.38656C15.599 4.54281 15.6315 4.70557 15.625 4.87484C15.625 5.09619 15.5697 5.30452 15.459 5.49984C15.3483 5.69515 15.1953 5.84814 15 5.95882V7.99984H19.375C19.6354 7.99984 19.8796 8.04867 20.1074 8.14632C20.3353 8.24398 20.5339 8.37744 20.7031 8.54671C20.8724 8.71598 21.0059 8.91455 21.1035 9.14241C21.2012 9.37028 21.25 9.61442 21.25 9.87484V11.7498H22.5ZM20 9.87484C20 9.70557 19.9382 9.55908 19.8145 9.43538C19.6908 9.31169 19.5443 9.24984 19.375 9.24984H9.375C9.20573 9.24984 9.05924 9.31169 8.93555 9.43538C8.81185 9.55908 8.75 9.70557 8.75 9.87484V17.3748C8.75 17.5441 8.81185 17.6906 8.93555 17.8143C9.05924 17.938 9.20573 17.9998 9.375 17.9998H13.75V20.2069L16.3281 17.9998H19.375C19.5443 17.9998 19.6908 17.938 19.8145 17.8143C19.9382 17.6906 20 17.5441 20 17.3748V9.87484ZM11.6895 14.3866C12.0475 14.7446 12.4577 15.0181 12.9199 15.2069C13.3822 15.3957 13.8672 15.4933 14.375 15.4998C14.8828 15.4998 15.3678 15.4054 15.8301 15.2166C16.2923 15.0278 16.7025 14.7511 17.0605 14.3866L17.9395 15.2752C17.4642 15.7505 16.9206 16.1151 16.3086 16.369C15.6966 16.6229 15.0521 16.7498 14.375 16.7498C13.7044 16.7498 13.0632 16.6229 12.4512 16.369C11.8392 16.1151 11.2923 15.7505 10.8105 15.2752L11.6895 14.3866Z" fill="#2F3B10"/>
</svg>
